{
.appVersion = "3187";
.formatVersion = 3;
DisplayStrings = (
"ĂĂĀĀĄĄÅÅǼǼǢǢĆĆČČĈĈĎĎÉÉĔĔĚĚĒĒĘĘĞĞǦǦĜĜĤĤĲÍÍĬĬĪĪĮĮĨĨĴĴĹĹŃŃŇŇÓÓŎŎŐŐŌŌǾǾŔŔŘŘŚŚŠŠŞŞŜŜŤŤŢŢÚÚŬŬŰŰŪŪŲŲŮŮŨŨŴŴÝÝŶŶŸŸŹŹŽŽǍǍǏǏǑǑǓǓǙǙǨǨǪǪǬǬǱǲǸǸȞȞȨȨȲȲăăāāąąååǽǽǣǣććččĉĉđđééĕĕěěēēęęğğǧǧĝĝħħĥĥííĭĭīīįįĩĩĳĵĵĺĺńńŉŉňňóóŏŏőőōōǿǿŕŕřřśśššşşŝŝţţúúŭŭűűūūǎǎǐǐǒǒǔǔǚǚǩǩǫǫǭǭǳǹǹȟȟȩȩȳȳųųůůũũŵŵýýŷŷÿÿźźžžЃЃЀЀЁЁЙЙЌЌЎЎЇЇ/afii10027.loclBGR ааѓѓѐѐёёййѝѝќќўўїї/afii10074.loclBGR/afii10074.loclBGR/afii10075.loclBGR/afii10075.loclBGR/uni045D.loclBGR/uni045D.loclBGR/afii10081.loclBGR/afii10081.loclBGR/afii10084.loclBGR/afii10084.loclBGR/afii10093.loclBGR/afii10093.loclBGR",
"ĕ",
"б"
);
date = "2023-04-20 09:50:37 +0000";
familyName = "New Font";
featurePrefixes = (
{
code = "languagesystem cyrl BGR ;
languagesystem latn dflt;
";
name = Languagesystems;
},
{
code = "# GSUB 
lookup loclLocalizedFormsinCyrilliclookup1 {
  lookupflag 0;
    sub \\afii10021 by \\afii10021.loclBGR ;
    sub \\afii10024 by \\afii10024.loclBGR ;
    sub \\afii10025 by \\afii10025.loclBGR ;
    sub \\afii10026 by \\afii10026.loclBGR ;
    sub \\afii10027 by \\afii10027.loclBGR ;
    sub \\afii10028 by \\afii10028.loclBGR ;
    sub \\afii10029 by \\afii10029.loclBGR ;
    sub \\afii10038 by \\afii10038.loclBGR ;
    sub \\afii10067 by \\afii10067.loclBGR ;
    sub \\afii10068 by \\afii10068.loclBGR ;
    sub \\afii10069 by \\afii10069.loclBGR ;
    sub \\afii10072 by \\afii10072.loclBGR ;
    sub \\afii10073 by \\afii10073.loclBGR ;
    sub \\afii10074 by \\afii10074.loclBGR ;
    sub \\afii10075 by \\afii10075.loclBGR ;
    sub \\afii10076 by \\afii10076.loclBGR ;
    sub \\afii10077 by \\afii10077.loclBGR ;
    sub \\afii10081 by \\afii10081.loclBGR ;
    sub \\afii10084 by \\afii10084.loclBGR ;
    sub \\afii10086 by \\afii10086.loclBGR ;
    sub \\afii10088 by \\afii10088.loclBGR ;
    sub \\afii10089 by \\afii10089.loclBGR ;
    sub \\afii10090 by \\afii10090.loclBGR ;
    sub \\afii10091 by \\afii10091.loclBGR ;
    sub \\afii10092 by \\afii10092.loclBGR ;

glyphs = (
{
glyphname = A;
layers = (
{
layerId = master01;
shapes = (
{
closed = 1;
nodes = (
(242,629,l),
(338,629,l),
(549,0,l),
(467,0,l),
(413,160,l),
(163,160,l),
(109,0,l),
(26,0,l)
);
},
{
closed = 1;
nodes = (
(393,222,l),
(289,532,l),
(184,222,l)
);
}
);
width = 575;
}
);
unicode = 65;
},
{
glyphname = Aacute;
layers = (
{
layerId = master01;
shapes = (
{
closed = 1;
nodes = (
(242,629,l),
(338,629,l),
(549,0,l),
(467,0,l),
(413,160,l),
(163,160,l),
(109,0,l),
(26,0,l)
);
},
{
closed = 1;
nodes = (
(391,860,l),
(423,790,l),
(179,677,l),
(156,727,l)
);
},
{
closed = 1;
nodes = (
(393,222,l),
(289,532,l),
(184,222,l)
);
}
);
width = 575;
}
);
unicode = 193;
},
{
glyphname = Acircumflex;
layers = (
{
layerId = master01;
shapes = (
{
closed = 1;
nodes = (
(242,629,l),
(338,629,l),
(549,0,l),
(467,0,l),
(413,160,l),
(163,160,l),
(109,0,l),
(26,0,l)
);
},
{
closed = 1;
nodes = (
(290,872,l),
(469,716,l),
(419,677,l),
(290,785,l),
(160,677,l),
(110,716,l)
);
},
{
closed = 1;
nodes = (
(393,222,l),
(289,532,l),
(184,222,l)
);
}
);
width = 575;
}
);
unicode = 194;
},
{
glyphname = Adieresis;
layers = (
{
layerId = master01;
shapes = (
{
closed = 1;
nodes = (
(242,629,l),
(338,629,l),
(549,0,l),
(467,0,l),
(413,160,l),
(163,160,l),
(109,0,l),
(26,0,l)
);
},
{
closed = 1;
nodes = (
(203,835,o),
(249,835,o),
(280,806,o),
(280,764,o),
(249,735,o),
(203,735,o),
(174,764,o),
(174,806,o)
);
},
{
closed = 1;
nodes = (
(393,222,l),
(289,532,l),
(184,222,l)
);
},
{
closed = 1;
nodes = (
(372,835,o),
(417,835,o),
(448,806,o),
(448,764,o),
(417,735,o),
(372,735,o),
(342,764,o),
(342,806,o)
);
}
);
width = 575;
}
);
unicode = 196;
},
{
glyphname = Agrave;
layers = (
{
layerId = master01;
shapes = (
{
closed = 1;
nodes = (
(242,629,l),
(338,629,l),
(549,0,l),
(467,0,l),
(413,160,l),
(163,160,l),
(109,0,l),
(26,0,l)
);
},
{
closed = 1;
nodes = (
(190,860,l),
(425,727,l),
(402,677,l),
(157,790,l)
);
},
{
closed = 1;
nodes = (
(393,222,l),
(289,532,l),
(184,222,l)
);
}
);
width = 575;
}
);
unicode = 192;
},
{
glyphname = Atilde;
layers = (
{
layerId = master01;
shapes = (
{
closed = 1;
nodes = (
(242,629,l),
(338,629,l),
(549,0,l),
(467,0,l),
(413,160,l),
(163,160,l),
(109,0,l),
(26,0,l)
);
},
{
closed = 1;
nodes = (
(144,789,o),
(190,842,o),
(242,842,o),
(276,825,qs),
(322,802,o),
(349,790,o),
(375,790,o),
(403,815,o),
(413,842,q),
(448,819,l),
(437,771,o),
(388,719,o),
(347,719,o),
(313,731,o),
(253,762,o),
(232,770,o),
(221,770,qs),
(189,770,o),
(164,719,q),
(132,738,l)
);
},
{
closed = 1;
nodes = (
(393,222,l),
(289,532,l),
(184,222,l)
);
}
);
width = 575;
}
);
unicode = 195;
},
{
glyphname = AE;
layers = (
{
layerId = master01;
shapes = (
{
closed = 1;
nodes = (
(269,629,l),
(766,629,l),
(766,561,l),
(458,561,l),
(458,350,l),
(748,350,l),
(748,283,l),
(458,283,l),
(458,69,l),
(766,69,l),
(766,0,l),
(379,0,l),
(379,160,l),
(170,160,l),
(109,0,l),
(26,0,l)
);
},
{
closed = 1;
nodes = (
(379,227,l),
(379,561,l),
(326,561,l),
(196,227,l)
);
}
);
width = 841;
}
);
unicode = 198;
},
{
glyphname = B;
layers = (
{
layerId = master01;
shapes = (
{
closed = 1;
nodes = (
(101,629,l),
(336,629,ls),
(435,629,o),
(542,535,o),
(542,464,qs),
(542,410,o),
(483,330,o),
(423,316,q),
(482,306,o),
(553,224,o),
(553,170,qs),
(553,56,o),
(440,15,qs),
(398,0,o),
(337,0,qs),
(101,0,l)
);
},
{
closed = 1;
nodes = (
(335,69,ls),
(407,69,o),
(469,127,o),
(469,223,o),
(401,280,o),
(335,280,qs),
(180,280,l),
(180,69,l)
);
},
{
closed = 1;
nodes = (
(334,348,ls),
(392,348,o),
(461,405,o),
(461,505,o),
(394,561,o),
(334,561,qs),
(180,561,l),
(180,348,l)
);
}
);
width = 622;
}
);
unicode = 66;
},
{
glyphname = C;
layers = (
{
layerId = master01;
shapes = (
{
closed = 1;
nodes = (
(201,640,o),
(319,640,qs),
(420,640,o),
(543,539,o),
(566,458,q),
(481,441,l),
(461,500,o),
(376,569,o),
(319,569,qs),
(240,569,o),
(136,437,o),
(136,202,o),
(229,60,o),
(319,60,qs),
(394,60,o),
(481,139,o),
(481,204,q),
(566,204,l),
(566,105,o),
(431,-11,o),
(196,-11,o),
(51,169,o),
(51,471,o)
);
}
);
width = 613;
}
);
unicode = 67;
},
{
glyphname = Ccedilla;
layers = (
{
layerId = master01;
shapes = (
{
closed = 1;
nodes = (
(201,640,o),
(319,640,qs),
(420,640,o),
(543,539,o),
(566,458,q),
(481,441,l),
(461,500,o),
(376,569,o),
(319,569,qs),
(240,569,o),
(136,437,o),
(136,202,o),
(229,60,o),
(319,60,qs),
(394,60,o),
(481,139,o),
(481,204,q),
(566,204,l),
(566,105,o),
(499,47,qs),
(437,-6,o),
(333,-11,q),
(320,-46,l),
(358,-47,o),
(396,-80,o),
(396,-109,qs),
(396,-183,o),
(284,-183,qs),
(261,-183,o),
(248,-181,q),
(248,-141,l),
(268,-143,o),
(283,-143,qs),
(343,-143,o),
(343,-110,qs),
(343,-79,o),
(291,-79,qs),
(289,-79,o),
(288,-79,qs),
(270,-79,o),
(265,-80,q),
(290,-10,l),
(188,-2,o),
(123,79,qs),
(51,169,o),
(51,471,o)
);
}
);
width = 613;
}
);
unicode = 199;
},
{
glyphname = D;
layers = (
{
layerId = master01;
shapes = (
{
closed = 1;
nodes = (
(100,629,l),
(285,629,ls),
(427,629,o),
(598,458,o),
(598,171,o),
(427,0,o),
(285,0,qs),
(100,0,l)
);
},
{
closed = 1;
nodes = (
(285,69,ls),
(390,69,o),
(514,208,o),
(514,315,qs),
(514,422,o),
(389,559,o),
(285,559,qs),
(179,559,l),
(179,69,l)
);
}
);
width = 661;
}
);
unicode = 68;
},
{
glyphname = Eth;
layers = (
{
layerId = master01;
shapes = (
{
closed = 1;
nodes = (
(22,345,l),
(330,345,l),
(330,285,l),
(22,285,l)
);
},
{
closed = 1;
nodes = (
(100,629,l),
(285,629,ls),
(429,629,o),
(598,453,o),
(598,314,qs),
(598,171,o),
(427,0,o),
(285,0,qs),
(100,0,l)
);
},
{
closed = 1;
nodes = (
(285,69,ls),
(393,69,o),
(514,212,o),
(514,315,qs),
(514,420,o),
(389,559,o),
(285,559,qs),
(179,559,l),
(179,69,l)
);
}
);
width = 661;
}
);
unicode = 208;
},
{
glyphname = E;
layers = (
{
layerId = master01;
shapes = (
{
closed = 1;
nodes = (
(100,629,l),
(487,629,l),
(487,561,l),
(179,561,l),
(179,350,l),
(469,350,l),
(469,283,l),
(179,283,l),
(179,69,l),
(487,69,l),
(487,0,l),
(100,0,l)
);
}
);
width = 562;
}
);
unicode = 69;
},
{
glyphname = Ecircumflex;
layers = (
{
layerId = master01;
shapes = (
{
closed = 1;
nodes = (
(105,629,l),
(492,629,l),
(492,561,l),
(184,561,l),
(184,350,l),
(474,350,l),
(474,283,l),
(184,283,l),
(184,69,l),
(492,69,l),
(492,0,l),
(105,0,l)
);
},
{
closed = 1;
nodes = (
(300,872,l),
(479,716,l),
(429,677,l),
(300,785,l),
(170,677,l),
(120,716,l)
);
}
);
width = 564;
}
);
unicode = 202;
},
{
glyphname = Edieresis;
layers = (
{
layerId = master01;
shapes = (
{
closed = 1;
nodes = (
(100,629,l),
(487,629,l),
(487,561,l),
(179,561,l),
(179,350,l),
(469,350,l),
(469,283,l),
(179,283,l),
(179,69,l),
(487,69,l),
(487,0,l),
(100,0,l)
);
},
{
closed = 1;
nodes = (
(187,835,o),
(233,835,o),
(264,806,o),
(264,764,o),
(233,735,o),
(187,735,o),
(158,764,o),
(158,806,o)
);
},
{
closed = 1;
nodes = (
(356,835,o),
(401,835,o),
(432,806,o),
(432,764,o),
(401,735,o),
(356,735,o),
(326,764,o),
(326,806,o)
);
}
);
width = 564;
}
);
unicode = 203;
},
{
glyphname = Egrave;
layers = (
{
layerId = master01;
shapes = (
{
closed = 1;
nodes = (
(100,629,l),
(487,629,l),
(487,561,l),
(179,561,l),
(179,350,l),
(469,350,l),
(469,283,l),
(179,283,l),
(179,69,l),
(487,69,l),
(487,0,l),
(100,0,l)
);
},
{
closed = 1;
nodes = (
(194,860,l),
(429,727,l),
(406,677,l),
(161,790,l)
);
}
);
width = 564;
}
);
unicode = 200;
},
{
glyphname = F;
layers = (
{
layerId = master01;
shapes = (
{
closed = 1;
nodes = (
(101,629,l),
(483,629,l),
(483,561,l),
(180,561,l),
(180,352,l),
(462,352,l),
(462,284,l),
(180,284,l),
(180,0,l),
(101,0,l)
);
}
);
width = 524;
}
);
unicode = 70;
},
{
glyphname = G;
layers = (
{
layerId = master01;
shapes = (
{
closed = 1;
nodes = (
(220,639,o),
(346,639,qs),
(420,639,o),
(531,579,o),
(571,513,q),
(495,487,l),
(430,568,o),
(256,568,o),
(135,426,o),
(135,199,o),
(239,61,o),
(327,61,qs),
(399,61,o),
(487,157,o),
(487,251,qs),
(487,253,l),
(329,259,l),
(329,311,l),
(564,311,l),
(564,0,l),
(500,0,l),
(490,108,l),
(448,-11,o),
(206,-11,o),
(51,165,o),
(51,463,o)
);
}
);
width = 645;
}
);
unicode = 71;
},
{
glyphname = H;
layers = (
{
layerId = master01;
shapes = (
{
closed = 1;
nodes = (
(101,629,l),
(180,629,l),
(180,352,l),
(489,352,l),
(489,629,l),
(568,629,l),
(568,0,l),
(489,0,l),
(489,284,l),
(180,284,l),
(180,0,l),
(101,0,l)
);
}
);
width = 669;
}
);
unicode = 72;
},
{
glyphname = I;
layers = (
{
layerId = master01;
shapes = (
{
closed = 1;
nodes = (
(101,629,l),
(180,629,l),
(180,0,l),
(101,0,l)
);
}
);
width = 280;
}
);
unicode = 73;
},
{
glyphname = Icircumflex;
layers = (
{
layerId = master01;
shapes = (
{
closed = 1;
nodes = (
(141,872,l),
(320,716,l),
(270,677,l),
(141,785,l),
(11,677,l),
(-39,716,l)
);
},
{
closed = 1;
nodes = (
(101,629,l),
(180,629,l),
(180,0,l),
(101,0,l)
);
}
);
width = 280;
}
);
unicode = 206;
},
{
glyphname = Idieresis;
layers = (
{
layerId = master01;
shapes = (
{
closed = 1;
nodes = (
(33,835,o),
(79,835,o),
(110,806,o),
(110,764,o),
(79,735,o),
(33,735,o),
(4,764,o),
(4,806,o)
);
},
{
closed = 1;
nodes = (
(101,629,l),
(180,629,l),
(180,0,l),
(101,0,l)
);
},
{
closed = 1;
nodes = (
(202,835,o),
(247,835,o),
(278,806,o),
(278,764,o),
(247,735,o),
(202,735,o),
(172,764,o),
(172,806,o)
);
}
);
width = 280;
}
);
unicode = 207;
},
{
glyphname = Igrave;
layers = (
{
layerId = master01;
shapes = (
{
closed = 1;
nodes = (
(40,860,l),
(275,727,l),
(252,677,l),
(7,790,l)
);
},
{
closed = 1;
nodes = (
(101,629,l),
(180,629,l),
(180,0,l),
(101,0,l)
);
}
);
width = 280;
}
);
unicode = 204;
},
{
glyphname = J;
layers = (
{
layerId = master01;
shapes = (
{
closed = 1;
nodes = (
(8,113,l),
(78,65,o),
(201,65,o),
(245,125,o),
(245,182,qs),
(245,629,l),
(324,629,l),
(324,182,ls),
(324,79,o),
(231,-11,o),
(87,-11,o),
(8,31,q)
);
}
);
width = 404;
}
);
unicode = 74;
},
{
glyphname = K;
layers = (
{
layerId = master01;
shapes = (
{
closed = 1;
nodes = (
(101,629,l),
(181,629,l),
(181,338,l),
(462,629,l),
(571,629,l),
(296,346,l),
(588,0,l),
(486,0,l),
(243,291,l),
(181,227,l),
(181,0,l),
(101,0,l)
);
}
);
width = 609;
}
);
unicode = 75;
},
{
glyphname = L;
layers = (
{
layerId = master01;
shapes = (
{
closed = 1;
nodes = (
(101,629,l),
(180,629,l),
(180,69,l),
(460,69,l),
(460,0,l),
(101,0,l)
);
}
);
width = 468;
}
);
unicode = 76;
},
{
glyphname = Lslash;
layers = (
{
layerId = master01;
shapes = (
{
closed = 1;
nodes = (
(313,476,l),
(350,419,l),
(66,212,l),
(28,269,l)
);
},
{
closed = 1;
nodes = (
(131,629,l),
(210,629,l),
(210,69,l),
(490,69,l),
(490,0,l),
(131,0,l)
);
}
);
width = 498;
}
);
unicode = 321;
},
{
glyphname = M;
layers = (
{
layerId = master01;
shapes = (
{
closed = 1;
nodes = (
(101,629,l),
(214,629,l),
(426,203,l),
(636,629,l),
(747,629,l),
(747,0,l),
(668,0,l),
(668,517,l),
(452,79,l),
(399,79,l),
(180,524,l),
(180,0,l),
(101,0,l)
);
}
);
width = 848;
}
);
unicode = 77;
},
{
glyphname = N;
layers = (
{
layerId = master01;
shapes = (
{
closed = 1;
nodes = (
(99,629,l),
(193,629,l),
(505,124,l),
(505,629,l),
(584,629,l),
(584,0,l),
(496,0,l),
(179,512,l),
(179,0,l),
(99,0,l)
);
}
);
width = 685;
}
);
unicode = 78;
},
{
glyphname = Ntilde;
layers = (
{
layerId = master01;
shapes = (
{
closed = 1;
nodes = (
(99,629,l),
(193,629,l),
(505,124,l),
(505,629,l),
(584,629,l),
(584,0,l),
(496,0,l),
(179,512,l),
(179,0,l),
(99,0,l)
);
},
{
closed = 1;
nodes = (
(197,789,o),
(243,842,o),
(269,842,qs),
(294,842,o),
(328,825,qs),
(374,802,o),
(402,790,o),
(428,790,o),
(456,815,o),
(466,842,q),
(501,819,l),
(490,771,o),
(441,719,o),
(400,719,o),
(366,731,o),
(306,762,o),
(285,770,o),
(274,770,qs),
(242,770,o),
(217,719,q),
(185,738,l)
);
}
);
width = 686;
}
);
unicode = 209;
},
{
glyphname = O;
layers = (
{
layerId = master01;
shapes = (
{
closed = 1;
nodes = (
(51,473,o),
(200,640,o),
(323,640,qs),
(445,640,o),
(596,473,o),
(596,154,o),
(446,-11,o),
(323,-11,qs),
(200,-11,o),
(51,156,o),
(51,314,qs)
);
},
{
closed = 1;
nodes = (
(235,61,o),
(411,61,o),
(514,189,o),
(514,437,o),
(411,569,o),
(235,569,o),
(133,437,o),
(133,189,o)
);
}
);
width = 646;
}
);
unicode = 79;
},
{
glyphname = Ocircumflex;
layers = (
{
layerId = master01;
shapes = (
{
closed = 1;
nodes = (
(51,473,o),
(200,640,o),
(323,640,qs),
(445,640,o),
(596,473,o),
(596,154,o),
(446,-11,o),
(323,-11,qs),
(200,-11,o),
(51,156,o),
(51,314,qs)
);
},
{
closed = 1;
nodes = (
(235,61,o),
(411,61,o),
(514,189,o),
(514,437,o),
(411,569,o),
(235,569,o),
(133,437,o),
(133,189,o)
);
},
{
closed = 1;
nodes = (
(323,872,l),
(502,716,l),
(452,677,l),
(323,785,l),
(193,677,l),
(143,716,l)
);
}
);
width = 646;
}
);
unicode = 212;
},
{
glyphname = Odieresis;
layers = (
{
layerId = master01;
shapes = (
{
closed = 1;
nodes = (
(51,473,o),
(200,640,o),
(323,640,qs),
(445,640,o),
(596,473,o),
(596,154,o),
(446,-11,o),
(323,-11,qs),
(200,-11,o),
(51,156,o),
(51,314,qs)
);
},
{
closed = 1;
nodes = (
(235,61,o),
(411,61,o),
(514,189,o),
(514,437,o),
(411,569,o),
(235,569,o),
(133,437,o),
(133,189,o)
);
},
{
closed = 1;
nodes = (
(215,835,o),
(261,835,o),
(292,806,o),
(292,764,o),
(261,735,o),
(215,735,o),
(186,764,o),
(186,806,o)
);
},
{
closed = 1;
nodes = (
(384,835,o),
(429,835,o),
(460,806,o),
(460,764,o),
(429,735,o),
(384,735,o),
(354,764,o),
(354,806,o)
);
}
);
width = 646;
}
);
unicode = 214;
},
{
glyphname = Ograve;
layers = (
{
layerId = master01;
shapes = (
{
closed = 1;
nodes = (
(51,473,o),
(200,640,o),
(323,640,qs),
(445,640,o),
(596,473,o),
(596,154,o),
(446,-11,o),
(323,-11,qs),
(200,-11,o),
(51,156,o),
(51,314,qs)
);
},
{
closed = 1;
nodes = (
(235,61,o),
(411,61,o),
(514,189,o),
(514,437,o),
(411,569,o),
(235,569,o),
(133,437,o),
(133,189,o)
);
},
{
closed = 1;
nodes = (
(223,860,l),
(458,727,l),
(435,677,l),
(190,790,l)
);
}
);
width = 646;
}
);
unicode = 210;
},
{
glyphname = Oslash;
layers = (
{
layerId = master01;
shapes = (
{
closed = 1;
nodes = (
(598,640,l),
(652,585,l),
(46,-16,l),
(-7,38,l)
);
},
{
closed = 1;
nodes = (
(51,473,o),
(200,640,o),
(323,640,qs),
(445,640,o),
(596,473,o),
(596,154,o),
(446,-11,o),
(323,-11,qs),
(200,-11,o),
(51,156,o),
(51,314,qs)
);
},
{
closed = 1;
nodes = (
(235,61,o),
(411,61,o),
(514,189,o),
(514,437,o),
(411,569,o),
(235,569,o),
(133,437,o),
(133,189,o)
);
}
);
width = 646;
}
);
unicode = 216;
},
{
glyphname = Otilde;
layers = (
{
layerId = master01;
shapes = (
{
closed = 1;
nodes = (
(51,473,o),
(200,640,o),
(323,640,qs),
(445,640,o),
(596,473,o),
(596,154,o),
(445,-11,o),
(323,-11,qs),
(200,-11,o),
(51,156,o),
(51,314,qs)
);
},
{
closed = 1;
nodes = (
(235,61,o),
(411,61,o),
(514,189,o),
(514,437,o),
(411,569,o),
(235,569,o),
(133,437,o),
(133,189,o)
);
},
{
closed = 1;
nodes = (
(177,789,o),
(223,842,o),
(249,842,qs),
(274,842,o),
(308,825,qs),
(354,802,o),
(382,790,o),
(408,790,o),
(436,815,o),
(446,842,q),
(481,819,l),
(470,771,o),
(421,719,o),
(380,719,o),
(346,731,o),
(286,762,o),
(265,770,o),
(254,770,qs),
(222,770,o),
(197,719,q),
(165,738,l)
);
}
);
width = 646;
}
);
unicode = 213;
},
{
glyphname = OE;
layers = (
{
layerId = master01;
shapes = (
{
closed = 1;
nodes = (
(234,61,o),
(390,61,o),
(493,189,o),
(493,437,o),
(390,569,o),
(234,569,o),
(132,437,o),
(132,189,o)
);
},
{
closed = 1;
nodes = (
(50,473,o),
(199,640,o),
(322,640,qs),
(420,640,o),
(493,563,q),
(493,629,l),
(880,629,l),
(880,561,l),
(572,561,l),
(572,350,l),
(862,350,l),
(862,283,l),
(572,283,l),
(572,283,o),
(572,69,q),
(880,69,l),
(880,0,l),
(493,0,l),
(493,64,l),
(420,-11,o),
(312,-11,qs),
(199,-11,o),
(50,156,o),
(50,314,qs)
);
}
);
width = 938;
}
);
unicode = 338;
},
{
glyphname = P;
layers = (
{
layerId = master01;
shapes = (
{
closed = 1;
nodes = (
(99,629,l),
(302,629,ls),
(406,629,o),
(515,524,o),
(515,346,o),
(406,243,o),
(302,243,qs),
(178,243,l),
(178,0,l),
(99,0,l)
);
},
{
closed = 1;
nodes = (
(302,311,ls),
(367,311,o),
(434,377,o),
(434,492,o),
(367,561,o),
(302,561,qs),
(178,561,l),
(178,311,l)
);
}
);
width = 554;
}
);
unicode = 80;
},
{
glyphname = Thorn;
layers = (
{
layerId = master01;
shapes = (
{
closed = 1;
nodes = (
(99,629,l),
(178,629,l),
(178,510,l),
(302,510,ls),
(405,510,o),
(515,407,o),
(515,316,qs),
(515,226,o),
(405,124,o),
(302,124,qs),
(178,124,l),
(178,0,l),
(99,0,l)
);
},
{
closed = 1;
nodes = (
(302,192,ls),
(366,192,o),
(434,257,o),
(434,315,qs),
(434,374,o),
(366,442,o),
(302,442,qs),
(178,442,l),
(178,192,l)
);
}
);
width = 554;
}
);
unicode = 222;
},
{
glyphname = Q;
layers = (
{
layerId = master01;
shapes = (
{
closed = 1;
nodes = (
(200,640,o),
(323,640,qs),
(445,640,o),
(596,473,o),
(596,314,qs),
(596,182,o),
(490,21,o),
(399,-2,q),
(430,-46,l),
(459,-85,o),
(499,-87,q),
(542,-87,o),
(596,-62,q),
(596,-148,l),
(556,-167,o),
(512,-167,qs),
(427,-167,o),
(366,-78,q),
(319,-11,l),
(198,-9,o),
(51,157,o),
(51,473,o)
);
},
{
closed = 1;
nodes = (
(235,61,o),
(411,61,o),
(514,189,o),
(514,437,o),
(411,569,o),
(235,569,o),
(133,437,o),
(133,189,o)
);
}
);
width = 652;
}
);
unicode = 81;
},
{
glyphname = R;
layers = (
{
layerId = master01;
shapes = (
{
closed = 1;
nodes = (
(101,629,l),
(320,629,ls),
(426,629,o),
(539,527,o),
(539,371,o),
(456,275,o),
(375,261,q),
(555,0,l),
(453,0,l),
(290,257,l),
(180,257,l),
(180,0,l),
(101,0,l)
);
},
{
closed = 1;
nodes = (
(314,312,ls),
(385,312,o),
(458,381,o),
(458,494,o),
(387,561,o),
(320,561,qs),
(180,561,l),
(180,312,l)
);
}
);
width = 613;
}
);
unicode = 82;
},
{
glyphname = S;
layers = (
{
layerId = master01;
shapes = (
{
closed = 1;
nodes = (
(146,189,l),
(146,127,o),
(233,61,o),
(370,61,o),
(450,122,o),
(450,205,o),
(401,253,o),
(353,269,q),
(242,310,l),
(164,336,o),
(84,408,o),
(84,547,o),
(196,640,o),
(398,640,o),
(505,551,o),
(513,476,q),
(436,476,l),
(419,568,o),
(301,568,qs),
(238,568,o),
(170,513,o),
(170,436,o),
(212,396,o),
(259,381,q),
(390,336,ls),
(457,313,o),
(536,233,o),
(536,88,o),
(412,-11,o),
(204,-11,o),
(71,94,o),
(69,189,q)
);
}
);
width = 605;
}
);
unicode = 83;
},
{
glyphname = T;
layers = (
{
layerId = master01;
shapes = (
{
closed = 1;
nodes = (
(6,629,l),
(495,629,l),
(495,561,l),
(290,561,l),
(290,0,l),
(211,0,l),
(211,561,l),
(6,561,l)
);
}
);
width = 501;
}
);
unicode = 84;
},
{
glyphname = U;
layers = (
{
layerId = master01;
shapes = (
{
closed = 1;
nodes = (
(87,629,l),
(166,629,l),
(166,227,ls),
(166,139,o),
(254,61,o),
(398,61,o),
(486,139,o),
(486,227,qs),
(486,629,l),
(565,629,l),
(565,227,ls),
(565,109,o),
(435,-11,o),
(216,-11,o),
(87,109,o),
(87,227,qs)
);
}
);
width = 654;
}
);
unicode = 85;
},
{
glyphname = Ucircumflex;
layers = (
{
layerId = master01;
shapes = (
{
closed = 1;
nodes = (
(87,629,l),
(166,629,l),
(166,227,ls),
(166,139,o),
(254,61,o),
(398,61,o),
(486,139,o),
(486,227,qs),
(486,629,l),
(565,629,l),
(565,227,ls),
(565,109,o),
(435,-11,o),
(216,-11,o),
(87,109,o),
(87,227,qs)
);
},
{
closed = 1;
nodes = (
(326,872,l),
(505,716,l),
(455,677,l),
(326,785,l),
(196,677,l),
(146,716,l)
);
}
);
width = 654;
}
);
unicode = 219;
},
{
glyphname = Udieresis;
layers = (
{
layerId = master01;
shapes = (
{
closed = 1;
nodes = (
(87,629,l),
(166,629,l),
(166,227,ls),
(166,139,o),
(254,61,o),
(398,61,o),
(486,139,o),
(486,227,qs),
(486,629,l),
(565,629,l),
(565,227,ls),
(565,109,o),
(435,-11,o),
(216,-11,o),
(87,109,o),
(87,227,qs)
);
},
{
closed = 1;
nodes = (
(218,835,o),
(264,835,o),
(295,806,o),
(295,764,o),
(264,735,o),
(218,735,o),
(189,764,o),
(189,806,o)
);
},
{
closed = 1;
nodes = (
(387,835,o),
(432,835,o),
(463,806,o),
(463,764,o),
(432,735,o),
(387,735,o),
(357,764,o),
(357,806,o)
);
}
);
width = 654;
}
);
unicode = 220;
},
{
glyphname = Ugrave;
layers = (
{
layerId = master01;
shapes = (
{
closed = 1;
nodes = (
(87,629,l),
(166,629,l),
(166,227,ls),
(166,139,o),
(254,61,o),
(398,61,o),
(486,139,o),
(486,227,qs),
(486,629,l),
(565,629,l),
(565,227,ls),
(565,109,o),
(435,-11,o),
(216,-11,o),
(87,109,o),
(87,227,qs)
);
},
{
closed = 1;
nodes = (
(226,860,l),
(461,727,l),
(438,677,l),
(193,790,l)
);
}
);
width = 654;
}
);
unicode = 217;
},
{
glyphname = V;
layers = (
{
layerId = master01;
shapes = (
{
closed = 1;
nodes = (
(101,629,l),
(281,100,l),
(462,629,l),
(545,629,l),
(322,0,l),
(240,0,l),
(18,629,l)
);
}
);
width = 563;
}
);
unicode = 86;
},
{
glyphname = W;
layers = (
{
layerId = master01;
shapes = (
{
closed = 1;
nodes = (
(102,629,l),
(255,106,l),
(410,564,l),
(463,564,l),
(617,106,l),
(793,629,l),
(880,629,l),
(658,0,l),
(575,0,l),
(438,403,l),
(296,0,l),
(213,0,l),
(14,629,l)
);
}
);
width = 895;
}
);
unicode = 87;
},
{
glyphname = X;
layers = (
{
layerId = master01;
shapes = (
{
closed = 1;
nodes = (
(142,629,l),
(322,372,l),
(488,629,l),
(583,629,l),
(366,313,l),
(593,0,l),
(495,0,l),
(313,251,l),
(144,0,l),
(48,0,l),
(270,312,l),
(47,629,l)
);
}
);
width = 642;
}
);
unicode = 88;
},
{
glyphname = Y;
layers = (
{
layerId = master01;
shapes = (
{
closed = 1;
nodes = (
(104,629,l),
(273,340,l),
(446,629,l),
(539,629,l),
(313,258,l),
(313,0,l),
(233,0,l),
(233,258,l),
(10,629,l)
);
}
);
width = 549;
}
);
unicode = 89;
},
{
glyphname = Z;
layers = (
{
layerId = master01;
shapes = (
{
closed = 1;
nodes = (
(73,71,l),
(436,554,l),
(73,557,l),
(73,629,l),
(535,629,l),
(535,558,l),
(172,75,l),
(535,72,l),
(535,0,l),
(73,0,l)
);
}
);
width = 592;
}
);
unicode = 90;
},
{
glyphname = uni0181;
layers = (
{
layerId = master01;
shapes = (
{
closed = 1;
nodes = (
(101,629,l),
(336,629,ls),
(435,629,o),
(542,535,o),
(542,464,qs),
(542,410,o),
(483,330,o),
(423,316,q),
(482,306,o),
(553,224,o),
(553,172,qs),
(553,171,o),
(553,170,qs),
(553,56,o),
(440,15,qs),
(398,0,o),
(337,0,qs),
(101,0,l)
);
},
{
closed = 1;
nodes = (
(335,69,ls),
(407,69,o),
(469,127,o),
(469,223,o),
(401,280,o),
(335,280,qs),
(180,280,l),
(180,69,l)
);
},
{
closed = 1;
nodes = (
(334,348,ls),
(392,348,o),
(461,405,o),
(461,505,o),
(394,561,o),
(334,561,qs),
(180,561,l),
(180,348,l)
);
}
);
width = 622;
}
);
unicode = 385;
},
{
glyphname = uni018A;
layers = (
{
layerId = master01;
shapes = (
{
closed = 1;
nodes = (
(100,629,l),
(285,629,ls),
(427,629,o),
(598,458,o),
(598,171,o),
(427,0,o),
(285,0,qs),
(100,0,l)
);
},
{
closed = 1;
nodes = (
(285,69,ls),
(390,69,o),
(514,208,o),
(514,315,qs),
(514,422,o),
(389,559,o),
(285,559,qs),
(179,559,l),
(179,69,l)
);
}
);
width = 661;
}
);
unicode = 394;
},
{
glyphname = uni018E;
layers = (
{
layerId = master01;
shapes = (
{
closed = 1;
nodes = (
(100,69,l),
(408,69,l),
(408,283,l),
(118,283,l),
(118,350,l),
(408,350,l),
(408,561,l),
(100,561,l),
(100,629,l),
(487,629,l),
(487,0,l),
(100,0,l)
);
}
);
width = 562;
}
);
unicode = 398;
},
{
glyphname = uni0202;
layers = (
{
layerId = master01;
shapes = (
{
closed = 1;
nodes = (
(242,629,l),
(338,629,l),
(549,0,l),
(467,0,l),
(413,160,l),
(163,160,l),
(109,0,l),
(26,0,l)
);
},
{
closed = 1;
nodes = (
(393,222,l),
(289,532,l),
(184,222,l)
);
},
{
closed = 1;
nodes = (
(140,752,o),
(192,816,o),
(252,835,o),
(288,835,qs),
(429,835,o),
(440,700,q),
(372,700,l),
(369,732,o),
(330,766,o),
(290,766,qs),
(214,766,o),
(206,700,q),
(139,700,l)
);
}
);
width = 575;
}
);
unicode = 514;
},
{
glyphname = uni0206;
layers = (
{
layerId = master01;
shapes = (
{
closed = 1;
nodes = (
(100,629,l),
(487,629,l),
(487,561,l),
(179,561,l),
(179,350,l),
(469,350,l),
(469,283,l),
(179,283,l),
(179,69,l),
(487,69,l),
(487,0,l),
(100,0,l)
);
},
{
closed = 1;
nodes = (
(144,752,o),
(196,816,o),
(256,835,o),
(292,835,qs),
(433,835,o),
(444,700,q),
(376,700,l),
(373,732,o),
(334,766,o),
(294,766,qs),
(218,766,o),
(210,700,q),
(143,700,l)
);
}
);
width = 562;
}
);
unicode = 518;
},
{
glyphname = uni0243;
layers = (
{
layerId = master01;
shapes = (
{
closed = 1;
nodes = (
(16,203,l),
(101,203,l),
(101,629,l),
(336,629,ls),
(435,629,o),
(542,535,o),
(542,464,qs),
(542,410,o),
(483,330,o),
(423,316,q),
(482,306,o),
(553,224,o),
(553,172,qs),
(553,171,o),
(553,170,qs),
(553,56,o),
(440,15,qs),
(398,0,o),
(337,0,qs),
(101,0,l),
(101,137,l),
(16,137,l)
);
},
{
closed = 1;
nodes = (
(335,69,ls),
(407,69,o),
(469,127,o),
(469,223,o),
(401,280,o),
(335,280,qs),
(180,280,l),
(180,203,l),
(309,203,l),
(309,137,l),
(180,137,l),
(180,69,l)
);
},
{
closed = 1;
nodes = (
(334,348,ls),
(392,348,o),
(461,405,o),
(461,505,o),
(394,561,o),
(334,561,qs),
(180,561,l),
(180,348,l)
);
}
);
width = 622;
}
);
unicode = 579;
},
{
glyphname = a;
layers = (
{
layerId = master01;
shapes = (
{
closed = 1;
nodes = (
(122,239,qs),
(173,275,o),
(327,275,o),
(397,249,q),
(397,310,ls),
(397,375,o),
(343,431,o),
(240,431,o),
(177,390,o),
(177,346,q),
(90,346,l),
(90,456,o),
(208,482,qs),
(244,490,o),
(286,490,qs),
(375,490,o),
(475,400,o),
(475,308,qs),
(475,0,l),
(407,0,l),
(399,80,l),
(355,-11,o),
(240,-11,qs),
(162,-11,o),
(70,75,o),
(70,203,o)
);
},
{
closed = 1;
nodes = (
(154,50,o),
(256,50,qs),
(314,50,o),
(397,133,o),
(397,199,q),
(326,219,o),
(220,219,o),
(154,181,o),
(154,140,qs)
);
}
);
width = 560;
}
);
unicode = 97;
},
{
glyphname = aacute;
layers = (
{
layerId = master01;
shapes = (
{
closed = 1;
nodes = (
(163,275,o),
(317,275,o),
(387,249,q),
(387,310,ls),
(387,375,o),
(333,431,o),
(230,431,o),
(167,390,o),
(167,346,q),
(80,346,l),
(80,456,o),
(198,482,qs),
(234,490,o),
(276,490,qs),
(364,490,o),
(465,400,o),
(465,308,qs),
(465,0,l),
(397,0,l),
(389,80,l),
(345,-11,o),
(230,-11,qs),
(153,-11,o),
(60,75,o),
(60,203,o)
);
},
{
closed = 1;
nodes = (
(144,50,o),
(246,50,qs),
(303,50,o),
(385,130,o),
(387,193,q),
(387,199,l),
(316,219,o),
(210,219,o),
(144,181,o),
(144,140,qs)
);
},
{
closed = 1;
nodes = (
(383,731,l),
(415,661,l),
(171,548,l),
(148,598,l)
);
}
);
width = 551;
}
);
unicode = 225;
},
{
glyphname = acircumflex;
layers = (
{
layerId = master01;
shapes = (
{
closed = 1;
nodes = (
(163,275,o),
(317,275,o),
(387,249,q),
(387,310,ls),
(387,375,o),
(333,431,o),
(230,431,o),
(167,390,o),
(167,346,q),
(80,346,l),
(80,456,o),
(198,482,qs),
(234,490,o),
(276,490,qs),
(364,490,o),
(465,400,o),
(465,308,qs),
(465,0,l),
(397,0,l),
(389,80,l),
(345,-11,o),
(230,-11,qs),
(153,-11,o),
(60,75,o),
(60,203,o)
);
},
{
closed = 1;
nodes = (
(282,743,l),
(461,587,l),
(411,548,l),
(282,656,l),
(152,548,l),
(102,587,l)
);
},
{
closed = 1;
nodes = (
(144,50,o),
(246,50,qs),
(304,50,o),
(387,133,o),
(387,199,q),
(316,219,o),
(210,219,o),
(144,181,o),
(144,140,qs)
);
}
);
width = 551;
}
);
unicode = 226;
},
{
glyphname = adieresis;
layers = (
{
layerId = master01;
shapes = (
{
closed = 1;
nodes = (
(163,275,o),
(317,275,o),
(387,249,q),
(387,310,ls),
(387,375,o),
(333,431,o),
(230,431,o),
(167,390,o),
(167,346,q),
(80,346,l),
(80,456,o),
(198,482,qs),
(234,490,o),
(276,490,qs),
(364,490,o),
(465,400,o),
(465,308,qs),
(465,0,l),
(397,0,l),
(389,80,l),
(345,-11,o),
(230,-11,qs),
(153,-11,o),
(60,75,o),
(60,203,o)
);
},
{
closed = 1;
nodes = (
(144,50,o),
(246,50,qs),
(304,50,o),
(387,133,o),
(387,199,q),
(316,219,o),
(210,219,o),
(144,181,o),
(144,140,qs)
);
},
{
closed = 1;
nodes = (
(174,705,o),
(220,705,o),
(251,676,o),
(251,634,o),
(220,605,o),
(174,605,o),
(145,634,o),
(145,676,o)
);
},
{
closed = 1;
nodes = (
(343,705,o),
(388,705,o),
(419,676,o),
(419,634,o),
(388,605,o),
(343,605,o),
(313,634,o),
(313,676,o)
);
}
);
width = 551;
}
);
unicode = 228;
},
{
glyphname = agrave;
layers = (
{
layerId = master01;
shapes = (
{
closed = 1;
nodes = (
(163,275,o),
(317,275,o),
(387,249,q),
(387,310,ls),
(387,375,o),
(333,431,o),
(230,431,o),
(167,390,o),
(167,346,q),
(80,346,l),
(80,456,o),
(198,482,qs),
(234,490,o),
(276,490,qs),
(364,490,o),
(465,400,o),
(465,308,qs),
(465,0,l),
(397,0,l),
(389,80,l),
(345,-11,o),
(230,-11,qs),
(153,-11,o),
(60,75,o),
(60,203,o)
);
},
{
closed = 1;
nodes = (
(144,50,o),
(246,50,qs),
(304,50,o),
(387,133,o),
(387,199,q),
(316,219,o),
(210,219,o),
(144,181,o),
(144,140,qs)
);
},
{
closed = 1;
nodes = (
(182,731,l),
(417,598,l),
(394,548,l),
(149,661,l)
);
}
);
width = 551;
}
);
unicode = 224;
},
{
glyphname = atilde;
layers = (
{
layerId = master01;
shapes = (
{
closed = 1;
nodes = (
(163,275,o),
(317,275,o),
(387,249,q),
(387,310,ls),
(387,375,o),
(333,431,o),
(230,431,o),
(167,390,o),
(167,346,q),
(80,346,l),
(80,456,o),
(198,482,qs),
(234,490,o),
(276,490,qs),
(364,490,o),
(465,400,o),
(465,308,qs),
(465,0,l),
(397,0,l),
(389,80,l),
(345,-11,o),
(230,-11,qs),
(153,-11,o),
(60,75,o),
(60,203,o)
);
},
{
closed = 1;
nodes = (
(136,660,o),
(182,713,o),
(234,713,o),
(268,696,qs),
(314,673,o),
(341,661,o),
(367,661,o),
(395,686,o),
(405,713,q),
(440,690,l),
(429,642,o),
(380,590,o),
(339,590,o),
(305,602,o),
(245,633,o),
(224,641,o),
(213,641,qs),
(181,641,o),
(156,590,q),
(124,609,l)
);
},
{
closed = 1;
nodes = (
(144,50,o),
(246,50,qs),
(303,50,o),
(385,130,o),
(387,193,q),
(387,199,l),
(316,219,o),
(210,219,o),
(144,181,o),
(144,140,qs)
);
}
);
width = 551;
}
);
unicode = 227;
},
{
glyphname = ae;
layers = (
{
layerId = master01;
shapes = (
{
closed = 1;
nodes = (
(188,282,o),
(280,282,qs),
(397,282,l),
(397,310,ls),
(397,374,o),
(344,431,o),
(291,431,qs),
(177,431,o),
(177,346,q),
(90,346,l),
(90,387,o),
(124,446,o),
(183,477,o),
(248,490,o),
(286,490,qs),
(393,490,o),
(448,408,q),
(503,490,o),
(617,490,qs),
(710,490,o),
(806,362,o),
(806,271,qs),
(806,254,o),
(802,222,q),
(475,222,l),
(475,143,o),
(548,53,o),
(612,53,qs),
(712,53,o),
(725,140,q),
(806,140,l),
(795,69,o),
(691,-11,o),
(612,-11,qs),
(492,-11,o),
(436,90,q),
(374,-11,o),
(256,-11,qs),
(168,-11,o),
(70,69,o),
(70,209,o)
);
},
{
closed = 1;
nodes = (
(154,50,o),
(256,50,qs),
(318,50,o),
(397,139,o),
(397,205,qs),
(397,205,o),
(397,222,q),
(280,222,ls),
(224,222,o),
(154,180,o),
(154,140,qs)
);
},
{
closed = 1;
nodes = (
(476,282,o),
(731,282,q),
(731,350,o),
(673,427,o),
(614,427,qs),
(555,427,o),
(482,346,o),
(476,282,q)
);
}
);
width = 850;
}
);
unicode = 230;
},
{
glyphname = b;
layers = (
{
layerId = master01;
shapes = (
{
closed = 1;
nodes = (
(101,681,l),
(180,681,l),
(180,407,l),
(228,490,o),
(320,490,qs),
(411,490,o),
(473,421,qs),
(534,353,o),
(534,241,qs),
(534,128,o),
(472,58,qs),
(410,-11,o),
(321,-11,qs),
(273,-11,o),
(196,37,o),
(174,84,q),
(156,0,l),
(101,0,l)
);
},
{
closed = 1;
nodes = (
(180,138,o),
(259,59,o),
(315,59,qs),
(372,59,o),
(412,108,qs),
(453,158,o),
(453,240,qs),
(453,323,o),
(413,371,qs),
(372,420,o),
(258,420,o),
(220,383,qs),
(182,347,o),
(180,282,q),
(180,204,ls)
);
}
);
width = 584;
}
);
unicode = 98;
},
{
glyphname = c;
layers = (
{
layerId = master01;
shapes = (
{
closed = 1;
nodes = (
(50,356,o),
(176,490,o),
(261,490,qs),
(345,490,o),
(395,447,qs),
(445,403,o),
(460,338,q),
(380,331,l),
(367,373,o),
(309,420,o),
(274,420,qs),
(209,420,o),
(131,324,o),
(131,242,qs),
(131,159,o),
(169,109,qs),
(208,59,o),
(323,59,o),
(380,112,o),
(380,161,q),
(461,161,l),
(461,84,o),
(407,36,qs),
(354,-11,o),
(268,-11,qs),
(177,-11,o),
(50,127,o),
(50,241,qs)
);
}
);
width = 515;
}
);
unicode = 99;
},
{
glyphname = ccedilla;
layers = (
{
layerId = master01;
shapes = (
{
closed = 1;
nodes = (
(176,490,o),
(345,490,o),
(445,403,o),
(460,338,q),
(380,331,l),
(367,372,o),
(338,396,qs),
(308,420,o),
(274,420,qs),
(209,420,o),
(131,324,o),
(131,159,o),
(208,59,o),
(323,59,o),
(380,112,o),
(380,161,q),
(461,161,l),
(461,84,o),
(407,36,qs),
(360,-6,o),
(288,-10,q),
(274,-46,l),
(312,-47,o),
(351,-80,o),
(351,-109,qs),
(351,-183,o),
(239,-183,qs),
(216,-183,o),
(202,-181,q),
(202,-141,l),
(222,-143,o),
(237,-143,qs),
(297,-143,o),
(297,-110,qs),
(297,-79,o),
(246,-79,qs),
(244,-79,o),
(243,-79,qs),
(225,-79,o),
(220,-80,q),
(245,-10,l),
(169,-2,o),
(114,58,qs),
(50,127,o),
(50,356,o)
);
}
);
width = 515;
}
);
unicode = 231;
},
{
glyphname = d;
layers = (
{
layerId = master01;
shapes = (
{
closed = 1;
nodes = (
(121,422,qs),
(181,490,o),
(274,490,qs),
(366,490,o),
(414,407,q),
(414,681,l),
(492,681,l),
(492,0,l),
(428,0,l),
(418,80,l),
(395,35,o),
(319,-11,o),
(274,-11,qs),
(183,-11,o),
(60,129,o),
(60,353,o)
);
},
{
closed = 1;
nodes = (
(141,157,o),
(221,59,o),
(333,59,o),
(373,96,qs),
(412,134,o),
(414,197,q),
(414,275,ls),
(414,342,o),
(336,420,o),
(220,420,o),
(141,322,o),
(141,240,qs)
);
}
);
width = 594;
}
);
unicode = 100;
},
{
glyphname = eth;
layers = (
{
layerId = master01;
shapes = (
{
closed = 1;
nodes = (
(60,119,o),
(189,-11,o),
(289,-11,qs),
(382,-11,o),
(492,157,o),
(492,297,qs),
(492,434,o),
(388,678,o),
(254,810,q),
(184,771,l),
(298,659,o),
(401,484,o),
(414,384,q),
(367,490,o),
(257,490,qs),
(179,490,o),
(60,362,o),
(60,242,qs)
);
},
{
closed = 1;
nodes = (
(212,421,o),
(326,421,o),
(408,326,o),
(415,238,q),
(396,59,o),
(279,59,qs),
(215,59,o),
(141,156,o),
(141,326,o)
);
},
{
closed = 1;
nodes = (
(216,558,l),
(503,723,l),
(465,775,l),
(179,610,l)
);
}
);
width = 555;
}
);
unicode = 240;
},
{
glyphname = e;
layers = (
{
layerId = master01;
shapes = (
{
closed = 1;
nodes = (
(171,490,o),
(374,490,o),
(425,412,qs),
(460,359,o),
(461,257,qs),
(461,235,o),
(459,222,q),
(129,222,l),
(129,148,o),
(201,53,o),
(266,53,qs),
(365,53,o),
(379,140,q),
(460,140,l),
(449,68,o),
(344,-11,o),
(266,-11,qs),
(170,-11,o),
(50,126,o),
(50,354,o)
);
},
{
closed = 1;
nodes = (
(385,282,l),
(385,346,o),
(361,382,qs),
(331,427,o),
(268,427,qs),
(206,427,o),
(136,344,o),
(130,282,q)
);
}
);
width = 515;
}
);
unicode = 101;
},
{
glyphname = ecircumflex;
layers = (
{
layerId = master01;
shapes = (
{
closed = 1;
nodes = (
(389,282,l),
(389,284,o),
(389,285,qs),
(389,383,o),
(328,415,qs),
(306,427,o),
(272,427,qs),
(210,427,o),
(140,344,o),
(134,282,q)
);
},
{
closed = 1;
nodes = (
(263,748,l),
(442,592,l),
(392,553,l),
(263,661,l),
(133,553,l),
(83,592,l)
);
},
{
closed = 1;
nodes = (
(175,490,o),
(376,490,o),
(426,412,qs),
(463,354,o),
(463,276,qs),
(463,248,o),
(460,222,q),
(133,222,l),
(133,148,o),
(205,53,o),
(270,53,qs),
(369,53,o),
(383,140,q),
(464,140,l),
(453,68,o),
(348,-11,o),
(270,-11,qs),
(174,-11,o),
(54,126,o),
(54,354,o)
);
}
);
width = 514;
}
);
unicode = 234;
},
{
glyphname = edieresis;
layers = (
{
layerId = master01;
shapes = (
{
closed = 1;
nodes = (
(172,490,o),
(372,490,o),
(422,412,qs),
(460,352,o),
(460,272,qs),
(460,248,o),
(457,222,q),
(130,222,l),
(130,148,o),
(202,53,o),
(267,53,qs),
(366,53,o),
(380,140,q),
(461,140,l),
(450,68,o),
(345,-11,o),
(267,-11,qs),
(171,-11,o),
(51,126,o),
(51,354,o)
);
},
{
closed = 1;
nodes = (
(152,705,o),
(198,705,o),
(229,676,o),
(229,634,o),
(198,605,o),
(152,605,o),
(123,634,o),
(123,676,o)
);
},
{
closed = 1;
nodes = (
(386,282,l),
(386,382,o),
(324,415,qs),
(302,427,o),
(270,427,qs),
(208,427,o),
(137,344,o),
(131,282,q)
);
},
{
closed = 1;
nodes = (
(321,705,o),
(366,705,o),
(397,676,o),
(397,634,o),
(366,605,o),
(321,605,o),
(291,634,o),
(291,676,o)
);
}
);
width = 514;
}
);
unicode = 235;
},
{
glyphname = egrave;
layers = (
{
layerId = master01;
shapes = (
{
closed = 1;
nodes = (
(172,490,o),
(372,490,o),
(422,412,qs),
(460,352,o),
(460,272,qs),
(460,248,o),
(457,222,q),
(130,222,l),
(130,148,o),
(202,53,o),
(267,53,qs),
(366,53,o),
(380,140,q),
(461,140,l),
(450,68,o),
(345,-11,o),
(267,-11,qs),
(171,-11,o),
(51,126,o),
(51,354,o)
);
},
{
closed = 1;
nodes = (
(159,736,l),
(394,603,l),
(371,553,l),
(126,666,l)
);
},
{
closed = 1;
nodes = (
(386,282,l),
(386,382,o),
(324,415,qs),
(302,427,o),
(270,427,qs),
(208,427,o),
(137,344,o),
(131,282,q)
);
}
);
width = 514;
}
);
unicode = 232;
},
{
glyphname = f;
layers = (
{
layerId = master01;
shapes = (
{
closed = 1;
nodes = (
(49,478,l),
(128,478,l),
(128,551,ls),
(128,622,o),
(206,689,o),
(308,689,o),
(347,676,q),
(333,614,l),
(301,627,o),
(281,627,qs),
(246,627,o),
(206,593,o),
(206,550,qs),
(206,478,l),
(305,478,l),
(305,424,l),
(206,424,l),
(206,0,l),
(128,0,l),
(128,424,l),
(49,424,l)
);
}
);
width = 343;
}
);
unicode = 102;
},
{
glyphname = g;
layers = (
{
layerId = master01;
shapes = (
{
closed = 1;
nodes = (
(28,-50,o),
(79,4,o),
(121,15,q),
(61,44,o),
(61,104,qs),
(61,134,o),
(108,182,o),
(143,190,q),
(89,238,o),
(89,394,o),
(200,490,o),
(352,490,o),
(405,454,q),
(412,507,o),
(483,571,o),
(541,571,q),
(534,493,l),
(446,493,o),
(442,419,q),
(477,376,o),
(477,316,qs),
(477,239,o),
(366,140,o),
(283,140,qs),
(226,140,o),
(182,163,q),
(162,159,o),
(130,130,o),
(130,105,qs),
(130,52,o),
(218,52,qs),
(404,52,ls),
(471,52,o),
(549,-5,o),
(549,-56,qs),
(549,-132,o),
(396,-246,o),
(162,-246,o),
(28,-159,o),
(28,-93,qs)
);
},
{
closed = 1;
nodes = (
(189,-183,o),
(358,-183,o),
(471,-110,o),
(471,-61,qs),
(471,-38,o),
(438,-5,o),
(404,-5,qs),
(211,-5,l),
(160,-7,o),
(106,-52,o),
(106,-128,o)
);
},
{
closed = 1;
nodes = (
(230,197,o),
(338,197,o),
(400,265,o),
(400,368,o),
(338,433,o),
(229,433,o),
(167,368,o),
(167,264,o)
);
}
);
width = 565;
}
);
unicode = 103;
},
{
glyphname = h;
layers = (
{
layerId = master01;
shapes = (
{
closed = 1;
nodes = (
(101,681,l),
(180,681,l),
(180,390,l),
(228,490,o),
(339,490,qs),
(424,490,o),
(519,378,o),
(519,281,qs),
(519,0,l),
(441,0,l),
(441,281,ls),
(441,350,o),
(376,420,o),
(254,420,o),
(180,317,o),
(180,226,qs),
(180,0,l),
(101,0,l)
);
}
);
width = 604;
}
);
unicode = 104;
},
{
glyphname = i;
layers = (
{
layerId = master01;
shapes = (
{
closed = 1;
nodes = (
(121,690,o),
(169,690,o),
(198,663,o),
(198,618,o),
(169,591,o),
(121,591,o),
(94,618,o),
(94,663,o)
);
},
{
closed = 1;
nodes = (
(106,479,l),
(185,479,l),
(185,0,l),
(106,0,l)
);
}
);
width = 299;
}
);
unicode = 105;
},
{
glyphname = dotlessi;
layers = (
{
layerId = master01;
shapes = (
{
closed = 1;
nodes = (
(101,479,l),
(180,479,l),
(180,0,l),
(101,0,l)
);
}
);
width = 280;
}
);
unicode = 305;
},
{
glyphname = icircumflex;
layers = (
{
layerId = master01;
shapes = (
{
closed = 1;
nodes = (
(146,743,l),
(325,587,l),
(275,548,l),
(146,656,l),
(16,548,l),
(-34,587,l)
);
},
{
closed = 1;
nodes = (
(106,479,l),
(185,479,l),
(185,0,l),
(106,0,l)
);
}
);
width = 299;
}
);
unicode = 238;
},
{
glyphname = idieresis;
layers = (
{
layerId = master01;
shapes = (
{
closed = 1;
nodes = (
(38,705,o),
(84,705,o),
(115,676,o),
(115,634,o),
(84,605,o),
(38,605,o),
(9,634,o),
(9,676,o)
);
},
{
closed = 1;
nodes = (
(106,479,l),
(185,479,l),
(185,0,l),
(106,0,l)
);
},
{
closed = 1;
nodes = (
(207,705,o),
(252,705,o),
(283,676,o),
(283,634,o),
(252,605,o),
(207,605,o),
(177,634,o),
(177,676,o)
);
}
);
width = 299;
}
);
unicode = 239;
},
{
glyphname = igrave;
layers = (
{
layerId = master01;
shapes = (
{
closed = 1;
nodes = (
(45,731,l),
(280,598,l),
(257,548,l),
(12,661,l)
);
},
{
closed = 1;
nodes = (
(106,479,l),
(185,479,l),
(185,0,l),
(106,0,l)
);
}
);
width = 299;
}
);
unicode = 236;
},
{
glyphname = j;
layers = (
{
layerId = master01;
shapes = (
{
closed = 1;
nodes = (
(-82,-140,l),
(-19,-177,o),
(33,-177,qs),
(121,-177,o),
(121,-67,qs),
(121,480,l),
(200,480,l),
(200,-67,ls),
(200,-204,o),
(110,-236,qs),
(82,-246,o),
(48,-246,qs),
(-14,-246,o),
(-86,-209,q)
);
},
{
closed = 1;
nodes = (
(136,690,o),
(184,690,o),
(213,663,o),
(213,618,o),
(184,591,o),
(136,591,o),
(109,618,o),
(109,663,o)
);
}
);
width = 314;
}
);
unicode = 106;
},
{
glyphname = uni0237;
layers = (
{
layerId = master01;
shapes = (
{
closed = 1;
nodes = (
(-82,-140,l),
(-19,-177,o),
(33,-177,qs),
(121,-177,o),
(121,-67,qs),
(121,480,l),
(200,480,l),
(200,-67,ls),
(200,-204,o),
(110,-236,qs),
(82,-246,o),
(48,-246,qs),
(-14,-246,o),
(-86,-209,q)
);
}
);
width = 314;
}
);
unicode = 567;
},
{
glyphname = k;
layers = (
{
layerId = master01;
shapes = (
{
closed = 1;
nodes = (
(101,681,l),
(180,681,l),
(180,285,l),
(411,478,l),
(521,478,l),
(301,299,l),
(532,0,l),
(435,0,l),
(244,253,l),
(180,201,l),
(180,0,l),
(101,0,l)
);
}
);
width = 564;
}
);
unicode = 107;
},
{
glyphname = kgreenlandic;
layers = (
{
layerId = master01;
shapes = (
{
closed = 1;
nodes = (
(50,458,l),
(129,478,l),
(129,285,l),
(360,478,l),
(470,478,l),
(250,299,l),
(481,0,l),
(384,0,l),
(193,253,l),
(129,201,l),
(129,0,l),
(50,0,l)
);
}
);
userData = {
com.fontlab.hintData = {
hhints = (
{
position = 0;
width = 21;
},
{
position = 458;
width = 20;
}
);
vhints = (
{
position = 50;
width = 79;
}
);
};
};
width = 491;
}
);
unicode = 312;
},
{
glyphname = l;
layers = (
{
layerId = master01;
shapes = (
{
closed = 1;
nodes = (
(101,681,l),
(180,681,l),
(180,0,l),
(101,0,l)
);
}
);
width = 280;
}
);
unicode = 108;
},
{
glyphname = lslash;
layers = (
{
layerId = master01;
shapes = (
{
closed = 1;
nodes = (
(285,461,l),
(322,404,l),
(70,220,l),
(33,277,l)
);
},
{
closed = 1;
nodes = (
(133,681,l),
(212,681,l),
(212,0,l),
(133,0,l)
);
}
);
width = 354;
}
);
unicode = 322;
},
{
glyphname = m;
layers = (
{
layerId = master01;
shapes = (
{
closed = 1;
nodes = (
(100,478,l),
(168,478,l),
(177,386,l),
(224,490,o),
(338,490,qs),
(400,490,o),
(484,429,o),
(503,375,q),
(548,490,o),
(670,490,qs),
(756,490,o),
(850,378,o),
(850,281,qs),
(850,0,l),
(772,0,l),
(772,281,ls),
(772,350,o),
(707,420,o),
(585,420,o),
(518,320,o),
(518,232,qs),
(518,0,l),
(440,0,l),
(440,281,ls),
(440,350,o),
(375,420,o),
(255,420,o),
(181,322,o),
(179,235,q),
(179,0,l),
(100,0,l)
);
}
);
width = 935;
}
);
unicode = 109;
},
{
glyphname = n;
layers = (
{
layerId = master01;
shapes = (
{
closed = 1;
nodes = (
(100,478,l),
(168,478,l),
(177,386,l),
(224,490,o),
(338,490,qs),
(423,490,o),
(518,378,o),
(518,281,qs),
(518,0,l),
(440,0,l),
(440,281,ls),
(440,350,o),
(375,420,o),
(255,420,o),
(181,322,o),
(179,235,q),
(179,0,l),
(100,0,l)
);
}
);
width = 603;
}
);
unicode = 110;
},
{
glyphname = ntilde;
layers = (
{
layerId = master01;
shapes = (
{
closed = 1;
nodes = (
(101,478,l),
(169,478,l),
(178,386,l),
(225,490,o),
(339,490,qs),
(424,490,o),
(519,378,o),
(519,281,qs),
(519,0,l),
(441,0,l),
(441,281,ls),
(441,350,o),
(376,420,o),
(256,420,o),
(182,322,o),
(180,235,q),
(180,0,l),
(101,0,l)
);
},
{
closed = 1;
nodes = (
(160,660,o),
(206,713,o),
(258,713,o),
(292,696,qs),
(338,673,o),
(365,661,o),
(391,661,o),
(419,686,o),
(429,713,q),
(464,690,l),
(453,642,o),
(404,590,o),
(363,590,o),
(329,602,o),
(269,633,o),
(248,641,o),
(237,641,qs),
(205,641,o),
(180,590,q),
(148,609,l)
);
}
);
width = 604;
}
);
unicode = 241;
},
{
glyphname = o;
layers = (
{
layerId = master01;
shapes = (
{
closed = 1;
nodes = (
(50,360,o),
(173,490,o),
(373,490,o),
(496,360,o),
(496,239,qs),
(496,119,o),
(373,-11,o),
(173,-11,o),
(50,119,o),
(50,239,qs)
);
},
{
closed = 1;
nodes = (
(201,57,o),
(340,57,o),
(416,154,o),
(416,325,o),
(344,422,o),
(205,422,o),
(131,325,o),
(131,154,o)
);
}
);
width = 546;
}
);
unicode = 111;
},
{
glyphname = ocircumflex;
layers = (
{
layerId = master01;
shapes = (
{
closed = 1;
nodes = (
(51,360,o),
(174,490,o),
(374,490,o),
(497,360,o),
(497,239,qs),
(497,119,o),
(374,-11,o),
(174,-11,o),
(51,119,o),
(51,239,qs)
);
},
{
closed = 1;
nodes = (
(274,743,l),
(453,587,l),
(403,548,l),
(274,656,l),
(144,548,l),
(94,587,l)
);
},
{
closed = 1;
nodes = (
(202,57,o),
(341,57,o),
(417,154,o),
(417,325,o),
(345,422,o),
(206,422,o),
(132,325,o),
(132,154,o)
);
}
);
width = 547;
}
);
unicode = 244;
},
{
glyphname = odieresis;
layers = (
{
layerId = master01;
shapes = (
{
closed = 1;
nodes = (
(51,360,o),
(174,490,o),
(374,490,o),
(497,360,o),
(497,239,qs),
(497,119,o),
(374,-11,o),
(174,-11,o),
(51,119,o),
(51,239,qs)
);
},
{
closed = 1;
nodes = (
(202,57,o),
(341,57,o),
(417,154,o),
(417,325,o),
(345,422,o),
(206,422,o),
(132,325,o),
(132,154,o)
);
},
{
closed = 1;
nodes = (
(167,705,o),
(213,705,o),
(244,676,o),
(244,634,o),
(213,605,o),
(167,605,o),
(138,634,o),
(138,676,o)
);
},
{
closed = 1;
nodes = (
(336,705,o),
(381,705,o),
(412,676,o),
(412,634,o),
(381,605,o),
(336,605,o),
(306,634,o),
(306,676,o)
);
}
);
width = 547;
}
);
unicode = 246;
},
{
glyphname = ograve;
layers = (
{
layerId = master01;
shapes = (
{
closed = 1;
nodes = (
(51,360,o),
(174,490,o),
(374,490,o),
(497,360,o),
(497,239,qs),
(497,119,o),
(374,-11,o),
(174,-11,o),
(51,119,o),
(51,239,qs)
);
},
{
closed = 1;
nodes = (
(202,57,o),
(341,57,o),
(417,154,o),
(417,325,o),
(345,422,o),
(206,422,o),
(132,325,o),
(132,154,o)
);
},
{
closed = 1;
nodes = (
(174,731,l),
(409,598,l),
(386,548,l),
(141,661,l)
);
}
);
width = 547;
}
);
unicode = 242;
},
{
glyphname = oslash;
layers = (
{
layerId = master01;
shapes = (
{
closed = 1;
nodes = (
(482,499,l),
(530,450,l),
(60,-23,l),
(13,25,l)
);
},
{
closed = 1;
nodes = (
(50,360,o),
(173,490,o),
(373,490,o),
(496,360,o),
(496,239,qs),
(496,119,o),
(373,-11,o),
(173,-11,o),
(50,119,o),
(50,239,qs)
);
},
{
closed = 1;
nodes = (
(201,57,o),
(340,57,o),
(416,154,o),
(416,325,o),
(344,422,o),
(205,422,o),
(131,325,o),
(131,154,o)
);
}
);
width = 546;
}
);
unicode = 248;
},
{
glyphname = otilde;
layers = (
{
layerId = master01;
shapes = (
{
closed = 1;
nodes = (
(51,360,o),
(174,490,o),
(374,490,o),
(497,360,o),
(497,239,qs),
(497,119,o),
(374,-11,o),
(174,-11,o),
(51,119,o),
(51,239,qs)
);
},
{
closed = 1;
nodes = (
(129,660,o),
(175,713,o),
(201,713,qs),
(226,713,o),
(260,696,qs),
(306,673,o),
(334,661,o),
(360,661,o),
(388,686,o),
(398,713,q),
(433,690,l),
(422,642,o),
(373,590,o),
(332,590,o),
(298,602,o),
(238,633,o),
(217,641,o),
(206,641,qs),
(174,641,o),
(149,590,q),
(117,609,l)
);
},
{
closed = 1;
nodes = (
(202,57,o),
(341,57,o),
(417,154,o),
(417,325,o),
(345,422,o),
(206,422,o),
(132,325,o),
(132,154,o)
);
}
);
width = 547;
}
);
unicode = 245;
},
{
glyphname = oe;
layers = (
{
layerId = master01;
shapes = (
{
closed = 1;
nodes = (
(50,360,o),
(173,490,o),
(373,490,o),
(434,425,qs),
(446,413,o),
(456,398,q),
(465,412,o),
(476,426,qs),
(537,494,o),
(738,494,o),
(788,416,qs),
(825,358,o),
(825,280,qs),
(825,278,o),
(825,276,qs),
(825,252,o),
(822,226,q),
(496,226,l),
(496,219,o),
(495,211,qs),
(498,147,o),
(531,104,qs),
(567,56,o),
(632,56,qs),
(731,56,o),
(745,144,q),
(826,144,l),
(815,72,o),
(710,-8,o),
(632,-8,qs),
(536,-8,o),
(476,61,qs),
(466,72,o),
(458,84,q),
(448,68,o),
(434,54,qs),
(372,-11,o),
(173,-11,o),
(50,119,o),
(50,239,qs)
);
},
{
closed = 1;
nodes = (
(166,106,qs),
(200,58,o),
(270,57,qs),
(340,58,o),
(378,106,qs),
(414,152,o),
(416,232,qs),
(416,238,o),
(416,243,qs),
(416,247,o),
(416,251,qs),
(414,328,o),
(380,374,qs),
(344,422,o),
(205,422,o),
(131,325,o),
(131,154,o)
);
},
{
closed = 1;
nodes = (
(751,286,l),
(751,386,o),
(689,418,qs),
(667,430,o),
(634,430,qs),
(572,430,o),
(502,348,o),
(496,286,q)
);
}
);
width = 876;
}
);
unicode = 339;
},
{
glyphname = p;
layers = (
{
layerId = master01;
shapes = (
{
closed = 1;
nodes = (
(101,478,l),
(166,478,l),
(175,405,l),
(222,490,o),
(409,490,o),
(534,352,o),
(534,126,o),
(408,-11,o),
(224,-11,o),
(180,58,q),
(180,-235,l),
(101,-235,l)
);
},
{
closed = 1;
nodes = (
(180,131,o),
(256,59,o),
(368,59,o),
(453,155,o),
(453,322,o),
(372,420,o),
(256,420,o),
(182,347,o),
(180,285,q),
(180,194,ls)
);
}
);
width = 594;
}
);
unicode = 112;
},
{
glyphname = thorn;
layers = (
{
layerId = master01;
shapes = (
{
closed = 1;
nodes = (
(101,640,l),
(180,640,l),
(180,414,l),
(226,490,o),
(315,490,qs),
(415,490,o),
(534,339,o),
(534,239,qs),
(534,137,o),
(413,-11,o),
(316,-11,qs),
(224,-11,o),
(180,58,q),
(180,-235,l),
(101,-235,l)
);
},
{
closed = 1;
nodes = (
(180,132,o),
(254,59,o),
(312,59,qs),
(378,59,o),
(453,170,o),
(453,238,qs),
(453,309,o),
(379,420,o),
(314,420,qs),
(256,420,o),
(182,347,o),
(180,285,qs),
(180,194,ls)
);
}
);
width = 594;
}
);
unicode = 254;
},
{
glyphname = q;
layers = (
{
layerId = master01;
shapes = (
{
closed = 1;
nodes = (
(176,490,o),
(264,490,qs),
(366,490,o),
(412,400,q),
(429,478,l),
(483,478,l),
(483,-235,l),
(405,-235,l),
(405,76,l),
(364,-11,o),
(177,-11,o),
(51,126,o),
(51,352,o)
);
},
{
closed = 1;
nodes = (
(218,59,o),
(275,59,qs),
(356,60,o),
(392,132,qs),
(404,156,o),
(405,187,q),
(405,278,ls),
(405,344,o),
(329,420,o),
(213,420,o),
(132,322,o),
(132,155,o)
);
}
);
width = 584;
}
);
unicode = 113;
},
{
glyphname = r;
layers = (
{
layerId = master01;
shapes = (
{
closed = 1;
nodes = (
(100,479,l),
(179,479,l),
(179,387,l),
(215,487,o),
(306,487,qs),
(335,487,o),
(361,478,q),
(357,401,l),
(327,411,o),
(296,411,qs),
(183,411,o),
(179,233,q),
(179,0,l),
(100,0,l)
);
}
);
width = 381;
}
);
unicode = 114;
},
{
glyphname = s;
layers = (
{
layerId = master01;
shapes = (
{
closed = 1;
nodes = (
(136,141,l),
(138,96,o),
(207,51,o),
(311,51,o),
(379,95,o),
(379,156,o),
(339,188,o),
(294,200,q),
(201,231,l),
(76,268,o),
(76,361,qs),
(76,420,o),
(177,490,o),
(349,490,o),
(446,418,o),
(448,363,q),
(371,363,l),
(362,428,o),
(261,428,qs),
(212,428,o),
(159,384,o),
(159,333,o),
(199,298,o),
(243,285,q),
(339,253,l),
(400,234,o),
(465,175,o),
(465,72,o),
(359,-11,o),
(169,-11,o),
(63,74,o),
(60,141,q)
);
}
);
width = 526;
}
);
unicode = 115;
},
{
glyphname = germandbls;
layers = (
{
layerId = master01;
shapes = (
{
closed = 1;
nodes = (
(101,470,ls),
(101,563,o),
(208,674,o),
(301,674,qs),
(381,674,o),
(480,590,o),
(480,535,qs),
(480,501,o),
(438,441,o),
(395,393,o),
(395,374,qs),
(395,357,o),
(448,308,o),
(510,262,o),
(563,185,o),
(563,142,qs),
(563,77,o),
(471,-11,o),
(400,-11,qs),
(348,-11,o),
(295,14,q),
(295,75,l),
(345,52,o),
(391,52,qs),
(431,52,o),
(479,96,o),
(479,135,qs),
(479,164,o),
(445,215,o),
(397,252,o),
(349,288,o),
(315,331,o),
(315,354,qs),
(315,389,o),
(396,487,o),
(396,526,qs),
(396,564,o),
(343,614,o),
(296,614,qs),
(243,614,o),
(180,545,o),
(180,470,qs),
(180,0,l),
(101,0,l)
);
}
);
width = 613;
}
);
unicode = 223;
},
{
glyphname = longs;
layers = (
{
layerId = master01;
shapes = (
{
closed = 1;
nodes = (
(49,478,l),
(128,478,l),
(128,551,ls),
(128,622,o),
(206,689,o),
(308,689,o),
(347,676,q),
(333,614,l),
(301,627,o),
(281,627,qs),
(246,627,o),
(206,593,o),
(206,550,qs),
(206,0,l),
(128,0,l),
(128,424,l),
(49,424,l)
);
}
);
width = 343;
}
);
unicode = 383;
},
{
glyphname = t;
layers = (
{
layerId = master01;
shapes = (
{
closed = 1;
nodes = (
(34,478,l),
(111,478,l),
(111,611,l),
(189,611,l),
(189,478,l),
(339,478,l),
(339,418,l),
(189,418,l),
(189,125,ls),
(189,52,o),
(257,52,qs),
(294,52,o),
(340,70,q),
(351,14,l),
(296,-11,o),
(248,-11,qs),
(220,-11,o),
(194,-3,qs),
(144,13,o),
(122,64,qs),
(112,89,o),
(111,124,qs),
(111,418,l),
(34,418,l)
);
}
);
width = 376;
}
);
unicode = 116;
},
{
glyphname = u;
layers = (
{
layerId = master01;
shapes = (
{
closed = 1;
nodes = (
(87,479,l),
(166,479,l),
(166,181,ls),
(166,60,o),
(278,60,qs),
(343,60,o),
(424,160,o),
(426,238,q),
(426,479,l),
(505,479,l),
(505,0,l),
(426,0,l),
(426,95,l),
(377,-9,o),
(267,-9,qs),
(186,-9,o),
(87,81,o),
(87,175,qs)
);
}
);
width = 606;
}
);
unicode = 117;
},
{
glyphname = ucircumflex;
layers = (
{
layerId = master01;
shapes = (
{
closed = 1;
nodes = (
(87,479,l),
(166,479,l),
(166,181,ls),
(166,60,o),
(278,60,qs),
(343,60,o),
(424,160,o),
(426,238,q),
(426,479,l),
(505,479,l),
(505,0,l),
(426,0,l),
(426,95,l),
(377,-9,o),
(267,-9,qs),
(186,-9,o),
(87,81,o),
(87,175,qs)
);
},
{
closed = 1;
nodes = (
(301,781,l),
(480,625,l),
(430,586,l),
(301,694,l),
(171,586,l),
(121,625,l)
);
}
);
width = 606;
}
);
unicode = 251;
},
{
glyphname = udieresis;
layers = (
{
layerId = master01;
shapes = (
{
closed = 1;
nodes = (
(87,479,l),
(166,479,l),
(166,181,ls),
(166,60,o),
(278,60,qs),
(343,60,o),
(424,160,o),
(426,238,q),
(426,479,l),
(505,479,l),
(505,0,l),
(426,0,l),
(426,95,l),
(377,-9,o),
(267,-9,qs),
(186,-9,o),
(87,81,o),
(87,175,qs)
);
},
{
closed = 1;
nodes = (
(193,705,o),
(239,705,o),
(270,676,o),
(270,634,o),
(239,605,o),
(193,605,o),
(164,634,o),
(164,676,o)
);
},
{
closed = 1;
nodes = (
(362,705,o),
(407,705,o),
(438,676,o),
(438,634,o),
(407,605,o),
(362,605,o),
(332,634,o),
(332,676,o)
);
}
);
width = 606;
}
);
unicode = 252;
},
{
glyphname = ugrave;
layers = (
{
layerId = master01;
shapes = (
{
closed = 1;
nodes = (
(87,479,l),
(166,479,l),
(166,181,ls),
(166,60,o),
(278,60,qs),
(343,60,o),
(424,160,o),
(426,238,q),
(426,479,l),
(505,479,l),
(505,0,l),
(426,0,l),
(426,95,l),
(377,-9,o),
(267,-9,qs),
(186,-9,o),
(87,81,o),
(87,175,qs)
);
},
{
closed = 1;
nodes = (
(200,769,l),
(435,636,l),
(412,586,l),
(167,699,l)
);
}
);
width = 606;
}
);
unicode = 249;
},
{
glyphname = uni01DD;
layers = (
{
layerId = master01;
shapes = (
{
closed = 1;
nodes = (
(62,409,o),
(167,488,o),
(245,488,qs),
(341,488,o),
(461,351,o),
(461,123,o),
(340,-13,o),
(240,-13,qs),
(139,-13,o),
(90,65,qs),
(52,125,o),
(52,205,qs),
(52,229,o),
(55,255,q),
(382,255,l),
(382,329,o),
(310,424,o),
(245,424,qs),
(146,424,o),
(132,337,q),
(51,337,l)
);
},
{
closed = 1;
nodes = (
(126,95,o),
(188,62,qs),
(210,50,o),
(242,50,qs),
(304,50,o),
(375,133,o),
(381,195,q),
(126,195,l)
);
}
);
width = 515;
}
);
unicode = 477;
},
{
glyphname = uni0203;
layers = (
{
layerId = master01;
shapes = (
{
closed = 1;
nodes = (
(122,239,qs),
(173,275,o),
(327,275,o),
(397,249,q),
(397,310,ls),
(397,375,o),
(343,431,o),
(240,431,o),
(177,390,o),
(177,346,q),
(90,346,l),
(90,456,o),
(208,482,qs),
(244,490,o),
(286,490,qs),
(375,490,o),
(475,400,o),
(475,308,qs),
(475,0,l),
(407,0,l),
(399,80,l),
(355,-11,o),
(240,-11,qs),
(162,-11,o),
(70,75,o),
(70,203,o)
);
},
{
closed = 1;
nodes = (
(154,50,o),
(256,50,qs),
(314,50,o),
(397,133,o),
(397,199,q),
(326,219,o),
(220,219,o),
(154,181,o),
(154,140,qs)
);
},
{
closed = 1;
nodes = (
(136,602,o),
(188,666,o),
(248,685,o),
(284,685,qs),
(425,685,o),
(436,550,q),
(368,550,l),
(365,582,o),
(326,616,o),
(286,616,qs),
(210,616,o),
(202,550,q),
(135,550,l)
);
}
);
width = 560;
}
);
unicode = 515;
},
{
glyphname = uni0207;
layers = (
{
layerId = master01;
shapes = (
{
closed = 1;
nodes = (
(171,490,o),
(372,490,o),
(422,412,qs),
(459,354,o),
(459,276,qs),
(459,248,o),
(456,222,q),
(129,222,l),
(129,148,o),
(201,53,o),
(266,53,qs),
(365,53,o),
(379,140,q),
(460,140,l),
(449,68,o),
(344,-11,o),
(266,-11,qs),
(170,-11,o),
(50,126,o),
(50,354,o)
);
},
{
closed = 1;
nodes = (
(385,282,l),
(385,284,o),
(385,285,qs),
(385,382,o),
(324,415,qs),
(302,427,o),
(268,427,qs),
(206,427,o),
(136,344,o),
(130,282,q)
);
},
{
closed = 1;
nodes = (
(122,602,o),
(174,666,o),
(234,685,o),
(270,685,qs),
(411,685,o),
(422,550,q),
(354,550,l),
(351,582,o),
(312,616,o),
(272,616,qs),
(196,616,o),
(188,550,q),
(121,550,l)
);
}
);
width = 515;
}
);
unicode = 519;
},
{
glyphname = uni0253;
layers = (
{
layerId = master01;
shapes = (
{
closed = 1;
nodes = (
(101,681,l),
(180,681,l),
(180,407,l),
(228,490,o),
(412,490,o),
(534,353,o),
(534,128,o),
(410,-11,o),
(321,-11,qs),
(273,-11,o),
(196,37,o),
(174,84,q),
(156,0,l),
(101,0,l)
);
},
{
closed = 1;
nodes = (
(180,138,o),
(259,59,o),
(371,59,o),
(453,158,o),
(453,322,o),
(372,420,o),
(258,420,o),
(182,347,o),
(180,282,q),
(180,204,ls)
);
}
);
width = 584;
}
);
unicode = 595;
},
{
glyphname = uni0257;
layers = (
{
layerId = master01;
shapes = (
{
closed = 1;
nodes = (
(181,490,o),
(366,490,o),
(414,407,q),
(414,681,l),
(492,681,l),
(492,0,l),
(428,0,l),
(418,80,l),
(395,35,o),
(319,-11,o),
(274,-11,qs),
(183,-11,o),
(60,129,o),
(60,354,o)
);
},
{
closed = 1;
nodes = (
(221,59,o),
(333,59,o),
(412,134,o),
(414,197,q),
(414,275,ls),
(414,342,o),
(336,420,o),
(220,420,o),
(141,322,o),
(141,158,o)
);
}
);
width = 594;
}
);
unicode = 599;
},
{
glyphname = v;
layers = (
{
layerId = master01;
shapes = (
{
closed = 1;
nodes = (
(107,478,l),
(251,83,l),
(396,478,l),
(485,478,l),
(295,0,l),
(208,0,l),
(18,478,l)
);
}
);
width = 503;
}
);
unicode = 118;
},
{
glyphname = w;
layers = (
{
layerId = master01;
shapes = (
{
closed = 1;
nodes = (
(100,478,l),
(216,97,l),
(330,455,l),
(396,455,l),
(509,93,l),
(626,478,l),
(704,478,l),
(548,0,l),
(471,0,l),
(361,335,l),
(253,0,l),
(177,0,l),
(18,478,l)
);
}
);
width = 725;
}
);
unicode = 119;
},
{
glyphname = x;
layers = (
{
layerId = master01;
shapes = (
{
closed = 1;
nodes = (
(207,239,l),
(26,479,l),
(122,479,l),
(259,299,l),
(390,479,l),
(486,479,l),
(303,239,l),
(485,0,l),
(389,0,l),
(252,181,l),
(122,0,l),
(26,0,l)
);
}
);
width = 512;
}
);
unicode = 120;
},
{
glyphname = y;
layers = (
{
layerId = master01;
shapes = (
{
closed = 1;
nodes = (
(54,-177,o),
(108,-177,qs),
(148,-177,o),
(177,-137,qs),
(198,-108,o),
(215,-49,qs),
(229,0,l),
(33,478,l),
(121,478,l),
(266,97,l),
(379,478,l),
(459,478,l),
(280,-95,ls),
(257,-168,o),
(182,-246,o),
(67,-246,o),
(5,-211,q),
(5,-139,l)
);
}
);
width = 484;
}
);
unicode = 121;
},
{
glyphname = z;
layers = (
{
layerId = master01;
shapes = (
{
closed = 1;
nodes = (
(53,64,l),
(334,414,l),
(53,414,l),
(53,478,l),
(423,478,l),
(423,414,l),
(146,64,l),
(423,64,l),
(423,0,l),
(53,0,l)
);
}
);
width = 475;
}
);
unicode = 122;
},
{
glyphname = afii10018;
layers = (
{
layerId = master01;
shapes = (
{
closed = 1;
nodes = (
(101,629,l),
(465,629,l),
(465,561,l),
(180,561,l),
(180,348,l),
(334,348,ls),
(367,348,o),
(437,331,o),
(508,293,o),
(553,220,o),
(553,172,qs),
(553,55,o),
(440,15,qs),
(398,0,o),
(337,0,qs),
(101,0,l)
);
},
{
closed = 1;
nodes = (
(335,69,ls),
(407,69,o),
(469,127,o),
(469,175,qs),
(469,223,o),
(401,280,o),
(335,280,qs),
(180,280,l),
(180,69,l)
);
}
);
userData = {
com.fontlab.hintData = {
hhints = (
{
position = 0;
width = 69;
},
{
position = 280;
width = 68;
},
{
position = 561;
width = 68;
}
);
vhints = (
{
position = 101;
width = 79;
},
{
position = 469;
width = 84;
}
);
};
};
width = 622;
}
);
unicode = 1041;
},
{
glyphname = afii10020;
layers = (
{
layerId = master01;
shapes = (
{
closed = 1;
nodes = (
(101,629,l),
(483,629,l),
(483,561,l),
(180,561,l),
(180,0,l),
(101,0,l)
);
}
);
userData = {
com.fontlab.hintData = {
hhints = (
{
position = 0;
width = 21;
},
{
position = 561;
width = 68;
}
);
vhints = (
{
position = 101;
width = 79;
}
);
};
};
width = 524;
}
);
unicode = 1043;
},
{
glyphname = afii10021;
layers = (
{
layerId = master01;
shapes = (
{
closed = 1;
nodes = (
(62,68,l),
(106,120,o),
(170,338,o),
(170,460,qs),
(170,629,l),
(541,629,l),
(541,68,l),
(598,68,l),
(598,-150,l),
(519,-150,l),
(519,0,l),
(90,0,l),
(90,-150,l),
(11,-150,l),
(11,68,l)
);
},
{
closed = 1;
nodes = (
(458,68,l),
(458,561,l),
(240,561,l),
(240,436,ls),
(240,320,o),
(212,222,qs),
(188,138,o),
(144,68,q)
);
}
);
userData = {
com.fontlab.hintData = {
hhints = (
{
position = -81;
width = 149;
},
{
position = 0;
width = 68;
},
{
position = 561;
width = 68;
}
);
vhints = (
{
position = 11;
width = 79;
},
{
position = 160;
width = 70;
},
{
position = 448;
width = 83;
},
{
position = 489;
width = 79;
}
);
};
};
width = 618;
}
);
unicode = 1044;
},
{
glyphname = afii10024;
layers = (
{
layerId = master01;
shapes = (
{
closed = 1;
nodes = (
(302,346,l),
(27,629,l),
(136,629,l),
(417,338,l),
(417,629,l),
(497,629,l),
(497,338,l),
(778,629,l),
(887,629,l),
(612,346,l),
(904,0,l),
(802,0,l),
(559,291,l),
(497,227,l),
(497,0,l),
(417,0,l),
(417,227,l),
(355,291,l),
(112,0,l),
(10,0,l)
);
}
);
userData = {
com.fontlab.hintData = {
hhints = (
{
position = 0;
width = 21;
},
{
position = 609;
width = 20;
}
);
vhints = (
{
position = 417;
width = 80;
}
);
};
};
width = 914;
}
);
unicode = 1046;
},
{
glyphname = afii10025;
layers = (
{
layerId = master01;
shapes = (
{
closed = 1;
nodes = (
(134,193,l),
(136,129,o),
(227,61,o),
(367,61,o),
(444,128,o),
(444,227,o),
(370,290,o),
(287,290,qs),
(215,290,l),
(215,353,l),
(264,353,ls),
(336,353,o),
(420,410,o),
(420,506,o),
(352,568,o),
(240,568,o),
(165,529,o),
(152,476,q),
(70,476,l),
(81,559,o),
(197,640,o),
(380,640,o),
(505,543,o),
(505,468,qs),
(505,368,o),
(395,329,q),
(455,312,o),
(529,234,o),
(529,173,qs),
(529,90,o),
(403,-11,o),
(197,-11,o),
(52,96,o),
(52,193,q)
);
}
);
userData = {
com.fontlab.hintData = {
hhints = (
{
position = -11;
width = 72;
},
{
position = 290;
width = 63;
},
{
position = 568;
width = 72;
}
);
vhints = (
{
position = 52;
width = 82;
},
{
position = 70;
width = 82;
},
{
position = 420;
width = 85;
},
{
position = 444;
width = 85;
}
);
};
};
width = 591;
}
);
unicode = 1047;
},
{
glyphname = afii10026;
layers = (
{
layerId = master01;
shapes = (
{
closed = 1;
nodes = (
(101,629,l),
(180,629,l),
(180,68,l),
(449,629,l),
(489,629,l),
(568,629,l),
(568,0,l),
(489,0,l),
(489,561,l),
(220,0,l),
(180,0,l),
(101,0,l)
);
}
);
userData = {
com.fontlab.hintData = {
hhints = (
{
position = 0;
width = 21;
},
{
position = 609;
width = 20;
}
);
vhints = (
{
position = 101;
width = 79;
},
{
position = 489;
width = 79;
}
);
};
};
width = 669;
}
);
unicode = 1048;
},
{
glyphname = uni040D;
layers = (
{
layerId = master01;
shapes = (
{
closed = 1;
nodes = (
(171,926,l),
(347,721,l),
(308,682,l),
(116,872,l)
);
},
{
ref = afii10026;
}
);
userData = {
com.fontlab.hintData = {
hhints = (
{
position = 0;
width = 21;
},
{
position = 609;
width = 20;
},
{
position = 682;
width = 21;
}
);
vhints = (
{
position = 101;
width = 79;
},
{
position = 489;
width = 79;
}
);
};
};
width = 669;
}
);
unicode = 1037;
},
{
glyphname = afii10029;
layers = (
{
layerId = master01;
shapes = (
{
closed = 1;
nodes = (
(22,68,l),
(58,58,o),
(71,58,qs),
(122,58,o),
(173,241,o),
(173,442,qs),
(173,629,l),
(554,629,l),
(554,0,l),
(471,0,l),
(471,561,l),
(253,561,l),
(253,374,ls),
(253,-11,o),
(66,-11,qs),
(50,-11,o),
(22,0,q)
);
}
);
userData = {
com.fontlab.hintData = {
hhints = (
{
position = -11;
width = 69;
},
{
position = 0;
width = 21;
},
{
position = 561;
width = 68;
}
);
vhints = (
{
position = 173;
width = 80;
},
{
position = 471;
width = 83;
}
);
};
};
width = 589;
}
);
unicode = 1051;
},
{
glyphname = afii10033;
layers = (
{
layerId = master01;
shapes = (
{
closed = 1;
nodes = (
(101,629,l),
(568,629,l),
(568,0,l),
(489,0,l),
(489,561,l),
(180,561,l),
(180,0,l),
(101,0,l)
);
}
);
userData = {
com.fontlab.hintData = {
hhints = (
{
position = 0;
width = 21;
},
{
position = 561;
width = 68;
}
);
vhints = (
{
position = 101;
width = 79;
},
{
position = 489;
width = 79;
}
);
};
};
width = 669;
}
);
unicode = 1055;
},
{
glyphname = afii10037;
layers = (
{
layerId = master01;
shapes = (
{
closed = 1;
nodes = (
(142,629,l),
(304,270,l),
(458,629,l),
(553,629,l),
(254,0,l),
(158,0,l),
(252,210,l),
(47,629,l)
);
}
);
userData = {
com.fontlab.hintData = {
hhints = (
{
position = 0;
width = 21;
},
{
position = 609;
width = 20;
}
);
};
};
width = 612;
}
);
unicode = 1059;
},
{
glyphname = afii10038;
layers = (
{
layerId = master01;
shapes = (
{
closed = 1;
nodes = (
(201,575,o),
(323,575,qs),
(330,575,o),
(336,575,q),
(336,629,l),
(415,629,l),
(415,575,l),
(421,575,o),
(428,575,qs),
(550,575,o),
(701,441,o),
(701,186,o),
(551,54,o),
(428,54,qs),
(421,54,o),
(415,54,q),
(415,0,l),
(336,0,l),
(336,54,l),
(330,54,o),
(323,54,qs),
(200,54,o),
(50,186,o),
(50,441,o)
);
},
{
closed = 1;
nodes = (
(235,112,o),
(323,112,qs),
(330,112,o),
(336,112,q),
(336,518,l),
(330,518,o),
(323,518,qs),
(235,518,o),
(132,412,o),
(132,214,o)
);
},
{
closed = 1;
nodes = (
(421,112,o),
(428,112,qs),
(516,112,o),
(619,214,o),
(619,412,o),
(516,518,o),
(428,518,qs),
(421,518,o),
(415,518,q),
(415,112,l)
);
}
);
userData = {
com.fontlab.hintData = {
hhints = (
{
position = 0;
width = 21;
},
{
position = 54;
width = 58;
},
{
position = 518;
width = 57;
},
{
position = 609;
width = 20;
}
);
vhints = (
{
position = 50;
width = 82;
},
{
position = 336;
width = 79;
},
{
position = 619;
width = 82;
}
);
};
};
width = 751;
}
);
unicode = 1060;
},
{
glyphname = afii10041;
layers = (
{
layerId = master01;
shapes = (
{
closed = 1;
nodes = (
(87,629,l),
(166,629,l),
(166,417,ls),
(166,329,o),
(254,251,o),
(326,251,qs),
(383,251,o),
(454,275,o),
(486,305,q),
(486,629,l),
(565,629,l),
(565,0,l),
(486,0,l),
(486,227,l),
(424,179,o),
(326,179,qs),
(216,179,o),
(87,299,o),
(87,417,qs)
);
}
);
userData = {
com.fontlab.hintData = {
hhints = (
{
position = 0;
width = 21;
},
{
position = 179;
width = 72;
},
{
position = 609;
width = 20;
}
);
vhints = (
{
position = 87;
width = 79;
},
{
position = 486;
width = 79;
}
);
};
};
width = 654;
}
);
unicode = 1063;
},
{
glyphname = afii10040;
layers = (
{
layerId = master01;
shapes = (
{
closed = 1;
nodes = (
(101,629,l),
(180,629,l),
(180,68,l),
(489,68,l),
(489,629,l),
(568,629,l),
(568,68,l),
(647,68,l),
(647,-160,l),
(568,-160,l),
(568,0,l),
(101,0,l)
);
}
);
userData = {
com.fontlab.hintData = {
hhints = (
{
position = 0;
width = 68;
},
{
position = 609;
width = 20;
}
);
vhints = (
{
position = 101;
width = 79;
},
{
position = 489;
width = 79;
},
{
position = 568;
width = 79;
}
);
};
};
width = 669;
}
);
unicode = 1062;
},
{
glyphname = afii10042;
layers = (
{
layerId = master01;
shapes = (
{
closed = 1;
nodes = (
(101,629,l),
(180,629,l),
(180,68,l),
(411,68,l),
(411,629,l),
(490,629,l),
(490,68,l),
(731,68,l),
(731,629,l),
(810,629,l),
(810,0,l),
(101,0,l)
);
}
);
userData = {
com.fontlab.hintData = {
hhints = (
{
position = 0;
width = 68;
},
{
position = 609;
width = 20;
}
);
vhints = (
{
position = 101;
width = 79;
},
{
position = 411;
width = 79;
},
{
position = 731;
width = 79;
}
);
};
};
width = 916;
}
);
unicode = 1064;
},
{
glyphname = afii10043;
layers = (
{
layerId = master01;
shapes = (
{
closed = 1;
nodes = (
(101,629,l),
(180,629,l),
(180,68,l),
(411,68,l),
(411,629,l),
(490,629,l),
(490,68,l),
(731,68,l),
(731,629,l),
(810,629,l),
(810,68,l),
(889,68,l),
(889,-160,l),
(810,-160,l),
(810,0,l),
(101,0,l)
);
}
);
userData = {
com.fontlab.hintData = {
hhints = (
{
position = 0;
width = 68;
},
{
position = 609;
width = 20;
}
);
vhints = (
{
position = 101;
width = 79;
},
{
position = 411;
width = 79;
},
{
position = 731;
width = 79;
},
{
position = 810;
width = 79;
}
);
};
};
width = 939;
}
);
unicode = 1065;
},
{
glyphname = afii10046;
layers = (
{
layerId = master01;
shapes = (
{
closed = 1;
nodes = (
(99,629,l),
(178,629,l),
(178,386,l),
(302,386,ls),
(406,386,o),
(515,283,o),
(515,105,o),
(406,0,o),
(302,0,qs),
(99,0,l)
);
},
{
closed = 1;
nodes = (
(302,68,ls),
(367,68,o),
(434,137,o),
(434,252,o),
(367,318,o),
(302,318,qs),
(178,318,l),
(178,68,l)
);
}
);
userData = {
com.fontlab.hintData = {
hhints = (
{
position = 0;
width = 68;
},
{
position = 318;
width = 68;
},
{
position = 609;
width = 20;
}
);
vhints = (
{
position = 99;
width = 79;
},
{
position = 434;
width = 81;
}
);
};
};
width = 554;
}
);
unicode = 1068;
},
{
glyphname = afii10045;
layers = (
{
layerId = master01;
shapes = (
{
closed = 1;
nodes = (
(99,629,l),
(178,629,l),
(178,386,l),
(302,386,ls),
(406,386,o),
(515,283,o),
(515,105,o),
(406,0,o),
(302,0,qs),
(99,0,l)
);
},
{
closed = 1;
nodes = (
(302,68,ls),
(367,68,o),
(434,137,o),
(434,252,o),
(367,318,o),
(302,318,qs),
(178,318,l),
(178,68,l)
);
},
{
closed = 1;
nodes = (
(621,629,l),
(700,629,l),
(700,0,l),
(621,0,l)
);
}
);
userData = {
com.fontlab.hintData = {
hhints = (
{
position = 0;
width = 68;
},
{
position = 318;
width = 68;
},
{
position = 609;
width = 20;
}
);
vhints = (
{
position = 99;
width = 79;
},
{
position = 434;
width = 81;
},
{
position = 621;
width = 79;
}
);
};
};
width = 800;
}
);
unicode = 1067;
},
{
glyphname = afii10044;
layers = (
{
layerId = master01;
shapes = (
{
closed = 1;
nodes = (
(26,629,l),
(250,629,l),
(250,386,l),
(374,386,ls),
(478,386,o),
(587,283,o),
(587,105,o),
(478,0,o),
(374,0,qs),
(250,0,l),
(171,0,l),
(171,561,l),
(26,561,l)
);
},
{
closed = 1;
nodes = (
(374,68,ls),
(439,68,o),
(506,137,o),
(506,252,o),
(439,318,o),
(374,318,qs),
(250,318,l),
(250,68,l)
);
}
);
userData = {
com.fontlab.hintData = {
hhints = (
{
position = 0;
width = 68;
},
{
position = 318;
width = 68;
},
{
position = 561;
width = 68;
}
);
vhints = (
{
position = 171;
width = 79;
},
{
position = 506;
width = 81;
}
);
};
};
width = 659;
}
);
unicode = 1066;
},
{
glyphname = afii10047;
layers = (
{
layerId = master01;
shapes = (
{
closed = 1;
nodes = (
(136,204,l),
(136,139,o),
(223,60,o),
(298,60,qs),
(388,60,o),
(434,131,qs),
(471,187,o),
(479,273,q),
(240,273,l),
(240,341,l),
(481,341,l),
(477,443,o),
(429,503,qs),
(377,569,o),
(298,569,qs),
(241,569,o),
(156,500,o),
(136,441,q),
(51,458,l),
(74,539,o),
(197,640,o),
(298,640,qs),
(416,640,o),
(566,471,o),
(566,169,o),
(421,-11,o),
(186,-11,o),
(51,105,o),
(51,204,q)
);
}
);
userData = {
com.fontlab.hintData = {
hhints = (
{
position = -11;
width = 71;
},
{
position = 273;
width = 68;
},
{
position = 569;
width = 71;
}
);
vhints = (
{
position = 51;
width = 85;
},
{
position = 479;
width = 87;
}
);
};
};
width = 613;
}
);
unicode = 1069;
},
{
glyphname = afii10048;
layers = (
{
layerId = master01;
shapes = (
{
closed = 1;
nodes = (
(101,629,l),
(180,629,l),
(180,352,l),
(242,352,l),
(250,482,o),
(316,556,qs),
(391,640,o),
(635,640,o),
(786,473,o),
(786,154,o),
(636,-11,o),
(513,-11,qs),
(512,-11,o),
(510,-11,qs),
(389,-11,o),
(316,72,qs),
(249,147,o),
(242,284,q),
(180,284,l),
(180,0,l),
(101,0,l)
);
},
{
closed = 1;
nodes = (
(425,61,o),
(601,61,o),
(704,189,o),
(704,437,o),
(601,569,o),
(425,569,o),
(323,437,o),
(323,189,o)
);
}
);
userData = {
com.fontlab.hintData = {
hhints = (
{
position = -11;
width = 72;
},
{
position = 0;
width = 21;
},
{
position = 284;
width = 68;
},
{
position = 569;
width = 71;
},
{
position = 609;
width = 20;
}
);
vhints = (
{
position = 101;
width = 79;
},
{
position = 242;
width = 81;
},
{
position = 704;
width = 82;
}
);
};
};
width = 879;
}
);
unicode = 1070;
},
{
glyphname = afii10049;
layers = (
{
layerId = master01;
shapes = (
{
closed = 1;
nodes = (
(211,261,l),
(130,275,o),
(47,371,o),
(47,527,o),
(160,629,o),
(266,629,qs),
(485,629,l),
(485,0,l),
(406,0,l),
(406,257,l),
(296,257,l),
(133,0,l),
(31,0,l)
);
},
{
closed = 1;
nodes = (
(201,312,o),
(272,312,qs),
(406,312,l),
(406,561,l),
(266,561,ls),
(199,561,o),
(128,494,o),
(128,381,o)
);
}
);
userData = {
com.fontlab.hintData = {
hhints = (
{
position = 0;
width = 21;
},
{
position = 257;
width = 55;
},
{
position = 561;
width = 68;
}
);
vhints = (
{
position = 47;
width = 81;
},
{
position = 406;
width = 79;
}
);
};
};
width = 577;
}
);
unicode = 1071;
},
{
glyphname = afii10021.loclBGR;
layers = (
{
layerId = master01;
shapes = (
{
closed = 1;
nodes = (
(52,68,l),
(251,629,l),
(333,629,l),
(531,68,l),
(568,68,l),
(568,-81,l),
(489,-81,l),
(489,0,l),
(472,0,l),
(111,0,l),
(90,0,l),
(90,-81,l),
(11,-81,l),
(11,68,l)
);
},
{
closed = 1;
nodes = (
(449,68,l),
(292,529,l),
(134,68,l)
);
}
);
userData = {
com.fontlab.hintData = {
hhints = (
{
position = -81;
width = 149;
},
{
position = 0;
width = 68;
},
{
position = 609;
width = 20;
}
);
vhints = (
{
position = 11;
width = 79;
},
{
position = 489;
width = 79;
}
);
};
};
width = 589;
}
);
},
{
glyphname = afii10029.loclBGR;
layers = (
{
layerId = master01;
shapes = (
{
closed = 1;
nodes = (
(251,629,l),
(333,629,l),
(555,0,l),
(472,0,l),
(292,529,l),
(111,0,l),
(28,0,l)
);
}
);
userData = {
com.fontlab.hintData = {
hhints = (
{
position = 0;
width = 21;
},
{
position = 609;
width = 20;
}
);
};
};
width = 589;
}
);
},
{
glyphname = afii10066;
layers = (
{
layerId = master01;
shapes = (
{
closed = 1;
nodes = (
(50,346,ls),
(50,475,o),
(107,544,qs),
(178,629,o),
(276,633,qs),
(374,636,o),
(374,681,q),
(429,681,ls),
(428,556,o),
(266,540,qs),
(184,532,o),
(141,480,qs),
(109,441,o),
(109,392,qs),
(109,362,l),
(172,457,o),
(376,457,o),
(483,326,o),
(483,240,qs),
(483,126,o),
(380,-11,o),
(275,-11,qs),
(164,-11,o),
(50,126,o),
(50,220,qs)
);
},
{
closed = 1;
nodes = (
(129,162,o),
(190,53,o),
(269,53,qs),
(341,53,o),
(402,136,o),
(402,294,o),
(337,390,o),
(264,390,qs),
(205,390,o),
(129,310,o),
(129,249,qs),
(129,224,ls)
);
}
);
userData = {
com.fontlab.hintData = {
hhints = (
{
position = -11;
width = 70;
},
{
position = 420;
width = 70;
},
{
position = 661;
width = 20;
}
);
vhints = (
{
position = 50;
width = 79;
},
{
position = 402;
width = 81;
}
);
};
};
width = 523;
}
);
unicode = 1073;
},
{
glyphname = afii10067;
layers = (
{
layerId = master01;
shapes = (
{
closed = 1;
nodes = (
(50,479,l),
(266,479,ls),
(268,479,o),
(270,479,qs),
(330,479,o),
(372,448,qs),
(415,416,o),
(415,360,qs),
(415,320,o),
(384,265,o),
(354,258,q),
(411,243,o),
(432,215,qs),
(453,186,o),
(453,130,qs),
(452,60,o),
(406,30,qs),
(358,0,o),
(266,0,qs),
(50,0,l)
);
},
{
closed = 1;
nodes = (
(258,59,ls),
(314,59,o),
(342,72,qs),
(372,85,o),
(372,130,qs),
(372,180,o),
(342,199,qs),
(313,218,o),
(258,218,qs),
(129,218,l),
(129,59,l)
);
},
{
closed = 1;
nodes = (
(240,274,ls),
(295,274,o),
(327,305,o),
(327,346,qs),
(327,380,o),
(306,394,qs),
(282,411,o),
(240,411,qs),
(129,411,l),
(129,274,l)
);
}
);
userData = {
com.fontlab.hintData = {
hhints = (
{
position = 0;
width = 59;
},
{
position = 229;
width = 56;
},
{
position = 422;
width = 68;
}
);
vhints = (
{
position = 50;
width = 79;
},
{
position = 357;
width = 88;
},
{
position = 402;
width = 81;
}
);
};
};
width = 523;
}
);
unicode = 1074;
},
{
glyphname = afii10068;
layers = (
{
layerId = master01;
shapes = (
{
closed = 1;
nodes = (
(50,479,l),
(360,479,l),
(360,411,l),
(129,411,l),
(129,0,l),
(50,0,l)
);
}
);
userData = {
com.fontlab.hintData = {
hhints = (
{
position = 0;
width = 21;
},
{
position = 411;
width = 68;
}
);
vhints = (
{
position = 50;
width = 79;
}
);
};
};
width = 400;
}
);
unicode = 1075;
},
{
glyphname = afii10069;
layers = (
{
layerId = master01;
shapes = (
{
closed = 1;
nodes = (
(106,68,l),
(128,90,o),
(141,218,o),
(141,334,qs),
(141,479,l),
(476,479,l),
(476,68,l),
(532,68,l),
(532,-82,l),
(453,-82,l),
(453,0,l),
(126,0,l),
(126,-82,l),
(50,-82,l),
(50,68,l)
);
},
{
closed = 1;
nodes = (
(397,68,l),
(397,411,l),
(217,411,l),
(217,298,ls),
(217,138,o),
(185,68,q)
);
}
);
userData = {
com.fontlab.hintData = {
hhints = (
{
position = -82;
width = 150;
},
{
position = 0;
width = 68;
},
{
position = 411;
width = 68;
}
);
vhints = (
{
position = 50;
width = 79;
},
{
position = 141;
width = 86;
},
{
position = 407;
width = 89;
},
{
position = 473;
width = 79;
}
);
};
};
width = 546;
}
);
unicode = 1076;
},
{
glyphname = afii10072;
layers = (
{
layerId = master01;
shapes = (
{
closed = 1;
nodes = (
(251,297,l),
(62,479,l),
(172,479,l),
(362,290,l),
(362,479,l),
(441,479,l),
(441,290,l),
(631,479,l),
(741,479,l),
(552,297,l),
(773,0,l),
(676,0,l),
(495,251,l),
(441,201,l),
(441,0,l),
(362,0,l),
(362,201,l),
(308,251,l),
(127,0,l),
(30,0,l)
);
}
);
userData = {
com.fontlab.hintData = {
hhints = (
{
position = 0;
width = 21;
},
{
position = 459;
width = 20;
}
);
vhints = (
{
position = 362;
width = 79;
}
);
};
};
width = 803;
}
);
unicode = 1078;
},
{
glyphname = afii10073;
layers = (
{
layerId = master01;
shapes = (
{
closed = 1;
nodes = (
(287,490,o),
(326,468,qs),
(385,434,o),
(385,362,qs),
(385,302,o),
(325,272,q),
(423,243,o),
(423,150,qs),
(423,66,o),
(364,27,qs),
(308,-11,o),
(231,-11,qs),
(129,-11,o),
(19,74,o),
(18,141,q),
(94,141,l),
(94,108,o),
(117,84,qs),
(147,51,o),
(225,51,qs),
(276,51,o),
(310,78,qs),
(343,104,o),
(343,145,qs),
(342,194,o),
(296,216,qs),
(258,234,o),
(205,234,qs),
(152,234,l),
(152,288,l),
(205,288,ls),
(256,288,o),
(279,311,qs),
(298,331,o),
(298,361,qs),
(298,427,o),
(212,427,qs),
(164,427,o),
(137,403,qs),
(117,385,o),
(117,362,q),
(34,362,ls),
(35,423,o),
(95,462,qs),
(138,490,o),
(211,490,qs)
);
}
);
userData = {
com.fontlab.hintData = {
hhints = (
{
position = -11;
width = 70;
},
{
position = 234;
width = 54;
},
{
position = 430;
width = 68;
}
);
vhints = (
{
position = 298;
width = 87;
},
{
position = 343;
width = 80;
}
);
};
};
width = 463;
}
);
unicode = 1079;
},
{
glyphname = afii10074;
layers = (
{
layerId = master01;
shapes = (
{
closed = 1;
nodes = (
(50,479,l),
(129,479,l),
(129,118,l),
(390,479,l),
(469,479,l),
(469,0,l),
(390,0,l),
(390,361,l),
(129,0,l),
(50,0,l)
);
}
);
userData = {
com.fontlab.hintData = {
hhints = (
{
position = 0;
width = 21;
},
{
position = 459;
width = 20;
}
);
vhints = (
{
position = 50;
width = 79;
},
{
position = 390;
width = 79;
}
);
};
};
width = 519;
}
);
unicode = 1080;
},
{
glyphname = afii10076;
layers = (
{
layerId = master01;
shapes = (
{
closed = 1;
nodes = (
(129,479,l),
(129,290,l),
(319,479,l),
(429,479,l),
(240,297,l),
(461,0,l),
(364,0,l),
(183,251,l),
(129,201,l),
(129,0,l),
(50,0,l),
(50,479,l)
);
}
);
userData = {
com.fontlab.hintData = {
hhints = (
{
position = 0;
width = 21;
},
{
position = 458;
width = 20;
}
);
vhints = (
{
position = 50;
width = 79;
}
);
};
};
width = 491;
}
);
unicode = 1082;
},
{
glyphname = afii10077;
layers = (
{
layerId = master01;
shapes = (
{
closed = 1;
nodes = (
(20,82,l),
(56,70,o),
(81,70,qs),
(119,70,o),
(141,195,o),
(141,334,qs),
(141,479,l),
(496,479,l),
(496,0,l),
(407,0,l),
(407,411,l),
(227,411,l),
(227,298,ls),
(227,228,o),
(216,128,o),
(185,36,o),
(122,-11,o),
(75,-11,qs),
(52,-11,o),
(20,2,q)
);
}
);
userData = {
com.fontlab.hintData = {
hhints = (
{
position = -11;
width = 81;
},
{
position = 0;
width = 21;
},
{
position = 411;
width = 68;
}
);
vhints = (
{
position = 141;
width = 86;
},
{
position = 407;
width = 89;
}
);
};
};
width = 546;
}
);
unicode = 1083;
},
{
glyphname = afii10078;
layers = (
{
layerId = master01;
shapes = (
{
closed = 1;
nodes = (
(50,478,l),
(192,478,l),
(328,112,l),
(463,478,l),
(606,478,l),
(606,0,l),
(517,0,l),
(517,395,l),
(372,0,l),
(283,0,l),
(139,395,l),
(139,0,l),
(50,0,l)
);
}
);
userData = {
com.fontlab.hintData = {
hhints = (
{
position = 0;
width = 21;
},
{
position = 458;
width = 20;
}
);
vhints = (
{
position = 50;
width = 89;
},
{
position = 517;
width = 89;
}
);
};
};
width = 656;
}
);
unicode = 1084;
},
{
glyphname = afii10079;
layers = (
{
layerId = master01;
shapes = (
{
closed = 1;
nodes = (
(50,479,l),
(129,479,l),
(129,295,l),
(390,295,l),
(390,479,l),
(469,479,l),
(469,0,l),
(390,0,l),
(390,227,l),
(129,227,l),
(129,0,l),
(50,0,l)
);
}
);
userData = {
com.fontlab.hintData = {
hhints = (
{
position = 0;
width = 21;
},
{
position = 227;
width = 68;
},
{
position = 459;
width = 20;
}
);
vhints = (
{
position = 50;
width = 79;
},
{
position = 390;
width = 79;
}
);
};
};
width = 519;
}
);
unicode = 1085;
},
{
glyphname = afii10081;
layers = (
{
layerId = master01;
shapes = (
{
closed = 1;
nodes = (
(50,479,l),
(469,479,l),
(469,0,l),
(390,0,l),
(390,411,l),
(129,411,l),
(129,0,l),
(50,0,l)
);
}
);
userData = {
com.fontlab.hintData = {
hhints = (
{
position = 0;
width = 21;
},
{
position = 411;
width = 68;
}
);
vhints = (
{
position = 50;
width = 79;
},
{
position = 390;
width = 79;
}
);
};
};
width = 519;
}
);
unicode = 1087;
},
{
glyphname = afii10084;
layers = (
{
layerId = master01;
shapes = (
{
closed = 1;
nodes = (
(20,479,l),
(471,479,l),
(471,411,l),
(290,411,l),
(290,0,l),
(211,0,l),
(211,411,l),
(20,411,l)
);
}
);
userData = {
com.fontlab.hintData = {
hhints = (
{
position = 0;
width = 21;
},
{
position = 411;
width = 68;
}
);
vhints = (
{
position = 211;
width = 79;
}
);
};
};
width = 491;
}
);
unicode = 1090;
},
{
glyphname = afii10086;
layers = (
{
layerId = master01;
shapes = (
{
closed = 1;
nodes = (
(40,360,o),
(163,490,o),
(263,490,qs),
(315,490,o),
(356,473,q),
(356,681,l),
(435,681,l),
(435,473,l),
(476,490,o),
(528,490,qs),
(628,490,o),
(751,360,o),
(751,239,qs),
(751,119,o),
(628,-11,o),
(528,-11,qs),
(476,-11,o),
(435,6,q),
(435,-200,l),
(356,-200,l),
(356,6,l),
(315,-11,o),
(263,-11,qs),
(163,-11,o),
(40,119,o),
(40,239,qs)
);
},
{
closed = 1;
nodes = (
(196,57,o),
(266,57,qs),
(323,57,o),
(356,89,q),
(356,387,l),
(320,422,o),
(262,422,qs),
(193,422,o),
(120,325,o),
(120,154,o)
);
},
{
closed = 1;
nodes = (
(470,57,o),
(526,57,qs),
(595,57,o),
(671,154,o),
(671,326,o),
(599,422,o),
(530,422,qs),
(471,422,o),
(435,387,q),
(435,89,l)
);
}
);
userData = {
com.fontlab.hintData = {
hhints = (
{
position = -11;
width = 68;
},
{
position = 422;
width = 68;
},
{
position = 661;
width = 20;
}
);
vhints = (
{
position = 40;
width = 80;
},
{
position = 356;
width = 79;
},
{
position = 671;
width = 80;
}
);
};
};
width = 791;
}
);
unicode = 1092;
},
{
glyphname = afii10089;
layers = (
{
layerId = master01;
shapes = (
{
closed = 1;
nodes = (
(50,479,l),
(129,479,l),
(129,331,ls),
(129,271,o),
(156,241,qs),
(184,210,o),
(241,210,qs),
(302,210,o),
(369,228,q),
(369,479,l),
(448,479,l),
(448,0,l),
(369,0,l),
(369,161,l),
(308,141,o),
(230,141,qs),
(149,141,o),
(50,231,o),
(50,325,qs)
);
}
);
userData = {
com.fontlab.hintData = {
hhints = (
{
position = 0;
width = 21;
},
{
position = 111;
width = 69;
},
{
position = 459;
width = 20;
}
);
vhints = (
{
position = 40;
width = 79;
},
{
position = 379;
width = 79;
}
);
};
};
width = 498;
}
);
unicode = 1095;
},
{
glyphname = afii10088;
layers = (
{
layerId = master01;
shapes = (
{
closed = 1;
nodes = (
(50,479,l),
(129,479,l),
(129,68,l),
(369,68,l),
(369,479,l),
(448,479,l),
(448,68,l),
(535,68,l),
(535,-140,l),
(463,-140,l),
(463,0,l),
(50,0,l)
);
}
);
userData = {
com.fontlab.hintData = {
hhints = (
{
position = 0;
width = 68;
},
{
position = 459;
width = 20;
}
);
vhints = (
{
position = 50;
width = 79;
},
{
position = 389;
width = 79;
},
{
position = 433;
width = 72;
}
);
};
};
width = 555;
}
);
unicode = 1094;
},
{
glyphname = afii10090;
layers = (
{
layerId = master01;
shapes = (
{
closed = 1;
nodes = (
(50,479,l),
(128,479,l),
(128,68,l),
(368,68,l),
(368,479,l),
(446,479,l),
(446,68,l),
(686,68,l),
(686,479,l),
(764,479,l),
(764,0,l),
(50,0,l)
);
}
);
userData = {
com.fontlab.hintData = {
hhints = (
{
position = 0;
width = 68;
},
{
position = 459;
width = 20;
}
);
vhints = (
{
position = 50;
width = 78;
},
{
position = 382;
width = 78;
},
{
position = 721;
width = 79;
}
);
};
};
width = 814;
}
);
unicode = 1096;
},
{
glyphname = afii10091;
layers = (
{
layerId = master01;
shapes = (
{
closed = 1;
nodes = (
(50,479,l),
(128,479,l),
(128,68,l),
(368,68,l),
(368,479,l),
(446,479,l),
(446,68,l),
(686,68,l),
(686,479,l),
(764,479,l),
(764,68,l),
(851,68,l),
(851,-140,l),
(779,-140,l),
(779,0,l),
(50,0,l)
);
}
);
userData = {
com.fontlab.hintData = {
hhints = (
{
position = 0;
width = 68;
},
{
position = 459;
width = 20;
}
);
vhints = (
{
position = 50;
width = 78;
},
{
position = 368;
width = 78;
},
{
position = 686;
width = 78;
},
{
position = 779;
width = 72;
}
);
};
};
width = 871;
}
);
unicode = 1097;
},
{
glyphname = afii10094;
layers = (
{
layerId = master01;
shapes = (
{
closed = 1;
nodes = (
(50,479,l),
(129,479,l),
(129,330,l),
(211,330,ls),
(315,330,o),
(424,237,o),
(424,159,qs),
(424,83,o),
(316,0,o),
(211,0,qs),
(50,0,l)
);
},
{
closed = 1;
nodes = (
(208,57,ls),
(280,57,o),
(312,83,qs),
(344,110,o),
(344,160,qs),
(344,212,o),
(284,262,o),
(212,262,qs),
(129,262,l),
(129,57,l)
);
}
);
userData = {
com.fontlab.hintData = {
hhints = (
{
position = 0;
width = 57;
},
{
position = 262;
width = 68;
},
{
position = 459;
width = 20;
}
);
vhints = (
{
position = 50;
width = 79;
},
{
position = 344;
width = 80;
}
);
};
};
width = 464;
}
);
unicode = 1100;
},
{
glyphname = afii10093;
layers = (
{
layerId = master01;
shapes = (
{
closed = 1;
nodes = (
(476,479,l),
(555,479,l),
(555,0,l),
(476,0,l)
);
},
{
ref = afii10094;
}
);
userData = {
com.fontlab.hintData = {
hhints = (
{
position = 0;
width = 21;
},
{
position = 0;
width = 57;
},
{
position = 262;
width = 68;
},
{
position = 459;
width = 20;
}
);
vhints = (
{
position = 50;
width = 79;
},
{
position = 344;
width = 80;
},
{
position = 476;
width = 79;
}
);
};
};
width = 605;
}
);
unicode = 1099;
},
{
glyphname = afii10092;
layers = (
{
layerId = master01;
shapes = (
{
closed = 1;
nodes = (
(20,479,l),
(244,479,l),
(244,330,l),
(326,330,ls),
(430,330,o),
(539,237,o),
(539,159,qs),
(539,83,o),
(431,0,o),
(326,0,qs),
(165,0,l),
(165,412,l),
(20,412,l)
);
},
{
closed = 1;
nodes = (
(323,57,ls),
(395,57,o),
(427,83,qs),
(459,110,o),
(459,160,qs),
(459,212,o),
(429,237,qs),
(400,262,o),
(328,262,qs),
(244,262,l),
(244,57,l)
);
}
);
userData = {
com.fontlab.hintData = {
hhints = (
{
position = 0;
width = 57;
},
{
position = 262;
width = 68;
},
{
position = 412;
width = 67;
}
);
vhints = (
{
position = 165;
width = 79;
},
{
position = 459;
width = 80;
}
);
};
};
width = 579;
}
);
unicode = 1098;
},
{
glyphname = afii10095;
layers = (
{
layerId = master01;
shapes = (
{
closed = 1;
nodes = (
(121,161,l),
(122,59,o),
(236,59,qs),
(291,59,o),
(360,142,o),
(368,206,q),
(166,206,l),
(166,274,l),
(368,274,l),
(360,339,o),
(287,420,o),
(227,420,qs),
(188,420,o),
(133,369,o),
(121,331,q),
(41,338,l),
(57,407,o),
(160,490,o),
(240,490,qs),
(334,490,o),
(451,346,o),
(451,242,qs),
(451,136,o),
(330,-11,o),
(233,-11,qs),
(149,-11,o),
(40,83,o),
(40,161,q)
);
}
);
userData = {
com.fontlab.hintData = {
hhints = (
{
position = -11;
width = 70;
},
{
position = 206;
width = 68;
},
{
position = 420;
width = 70;
}
);
vhints = (
{
position = 40;
width = 81;
},
{
position = 368;
width = 83;
}
);
};
};
width = 491;
}
);
unicode = 1101;
},
{
glyphname = afii10096;
layers = (
{
layerId = master01;
shapes = (
{
closed = 1;
nodes = (
(50,478,l),
(129,478,l),
(129,295,l),
(184,295,l),
(196,376,o),
(242,425,qs),
(304,490,o),
(503,490,o),
(626,360,o),
(626,239,qs),
(626,119,o),
(503,-11,o),
(403,-11,qs),
(304,-11,o),
(242,54,qs),
(184,116,o),
(180,227,q),
(129,227,l),
(129,0,l),
(50,0,l)
);
},
{
closed = 1;
nodes = (
(331,57,o),
(470,57,o),
(546,154,o),
(546,325,o),
(474,422,o),
(335,422,o),
(261,325,o),
(261,154,o)
);
}
);
userData = {
com.fontlab.hintData = {
hhints = (
{
position = -11;
width = 68;
},
{
position = 0;
width = 21;
},
{
position = 227;
width = 68;
},
{
position = 422;
width = 68;
},
{
position = 458;
width = 20;
}
);
vhints = (
{
position = 50;
width = 79;
},
{
position = 180;
width = 81;
},
{
position = 546;
width = 80;
}
);
};
};
width = 666;
}
);
unicode = 1102;
},
{
glyphname = afii10097;
layers = (
{
layerId = master01;
shapes = (
{
closed = 1;
nodes = (
(185,230,l),
(160,242,ls),
(157,243,o),
(146,248,o),
(119,265,o),
(98,286,o),
(81,323,o),
(81,344,qs),
(81,413,o),
(177,478,o),
(252,478,qs),
(441,478,l),
(441,0,l),
(362,0,l),
(362,206,l),
(258,206,l),
(107,0,l),
(10,0,l)
);
},
{
closed = 1;
nodes = (
(165,313,o),
(214,274,o),
(247,274,qs),
(362,274,l),
(362,422,l),
(247,422,ls),
(214,422,o),
(165,382,o),
(165,347,qs)
);
}
);
userData = {
com.fontlab.hintData = {
hhints = (
{
position = 0;
width = 21;
},
{
position = 206;
width = 68;
},
{
position = 422;
width = 56;
}
);
vhints = (
{
position = 81;
width = 84;
},
{
position = 362;
width = 79;
}
);
};
};
width = 491;
}
);
unicode = 1103;
},
{
glyphname = afii10067.loclBGR;
layers = (
{
layerId = master01;
shapes = (
{
closed = 1;
nodes = (
(52,444,ls),
(52,581,o),
(117,640,qs),
(171,689,o),
(259,689,qs),
(325,688,o),
(367,662,qs),
(437,618,o),
(437,527,qs),
(437,445,o),
(365,395,q),
(422,379,o),
(490,281,o),
(490,219,qs),
(490,106,o),
(425,44,qs),
(367,-11,o),
(261,-11,qs),
(224,-11,o),
(159,8,o),
(92,55,o),
(52,157,o),
(52,225,qs)
);
},
{
closed = 1;
nodes = (
(131,57,o),
(272,57,qs),
(341,57,o),
(372,96,qs),
(409,139,o),
(409,219,qs),
(409,274,o),
(362,320,qs),
(328,352,o),
(268,353,qs),
(220,353,o),
(180,335,qs),
(140,318,o),
(131,311,q),
(131,221,ls)
);
},
{
closed = 1;
nodes = (
(152,385,o),
(233,408,o),
(261,412,qs),
(318,420,o),
(359,489,o),
(359,523,qs),
(359,572,o),
(300,622,o),
(261,622,qs),
(131,622,o),
(131,445,qs),
(131,377,l)
);
}
);
userData = {
com.fontlab.hintData = {
hhints = (
{
position = -11;
width = 70;
},
{
position = 369;
width = 56;
},
{
position = 620;
width = 68;
}
);
vhints = (
{
position = 52;
width = 79;
},
{
position = 359;
width = 88;
},
{
position = 404;
width = 81;
}
);
};
};
width = 524;
}
);
},
{
glyphname = afii10068.loclBGR;
layers = (
{
layerId = master01;
shapes = (
{
closed = 1;
nodes = (
(40,175,o),
(104,233,o),
(166,253,qs),
(262,285,ls),
(308,299,o),
(326,316,qs),
(346,333,o),
(346,383,o),
(320,406,qs),
(294,428,o),
(244,428,qs),
(143,428,o),
(134,363,q),
(57,363,l),
(58,418,o),
(108,454,qs),
(156,490,o),
(328,490,o),
(378,455,qs),
(429,420,o),
(429,361,qs),
(429,269,o),
(304,231,qs),
(211,200,ls),
(164,188,o),
(146,172,qs),
(126,155,o),
(126,126,qs),
(126,95,o),
(194,51,o),
(246,51,qs),
(300,51,o),
(332,74,qs),
(367,95,o),
(369,141,q),
(445,141,l),
(442,74,o),
(389,32,qs),
(337,-11,o),
(241,-11,qs),
(146,-11,o),
(93,30,qs),
(40,72,o),
(40,124,qs)
);
}
);
userData = {
com.fontlab.hintData = {
hhints = (
{
position = -11;
width = 62;
},
{
position = 428;
width = 62;
}
);
vhints = (
{
position = 40;
width = 86;
},
{
position = 57;
width = 77;
},
{
position = 346;
width = 83;
},
{
position = 369;
width = 76;
}
);
};
};
width = 485;
}
);
},
{
glyphname = afii10069.loclBGR;
layers = (
{
layerId = master01;
shapes = (
{
closed = 1;
nodes = (
(40,344,o),
(159,490,o),
(253,490,qs),
(355,490,o),
(401,400,q),
(418,478,l),
(472,478,l),
(472,-18,ls),
(472,-108,o),
(374,-200,o),
(192,-200,o),
(87,-128,o),
(87,-56,q),
(174,-56,l),
(174,-141,o),
(288,-141,qs),
(344,-141,o),
(394,-80,o),
(394,-18,qs),
(394,76,l),
(354,-11,o),
(260,-11,qs),
(162,-11,o),
(40,132,o),
(40,239,qs)
);
},
{
closed = 1;
nodes = (
(121,164,o),
(200,59,o),
(264,59,qs),
(317,59,o),
(394,130,o),
(394,187,qs),
(394,278,ls),
(394,341,o),
(320,420,o),
(260,420,qs),
(196,420,o),
(121,314,o),
(121,238,qs)
);
}
);
userData = {
com.fontlab.hintData = {
hhints = (
{
position = -200;
width = 59;
},
{
position = -11;
width = 70;
},
{
position = 420;
width = 70;
},
{
position = 458;
width = 20;
}
);
vhints = (
{
position = 40;
width = 81;
},
{
position = 87;
width = 87;
},
{
position = 394;
width = 78;
},
{
position = 418;
width = 54;
}
);
};
};
width = 522;
}
);
},
{
glyphname = afii10072.loclBGR;
layers = (
{
layerId = master01;
shapes = (
{
closed = 1;
nodes = (
(251,297,l),
(62,479,l),
(172,479,l),
(362,290,l),
(362,681,l),
(441,681,l),
(441,290,l),
(631,479,l),
(741,479,l),
(552,297,l),
(773,0,l),
(676,0,l),
(495,251,l),
(441,201,l),
(441,0,l),
(362,0,l),
(362,201,l),
(308,251,l),
(127,0,l),
(30,0,l)
);
}
);
userData = {
com.fontlab.hintData = {
hhints = (
{
position = 0;
width = 21;
},
{
position = 458;
width = 20;
},
{
position = 661;
width = 20;
}
);
vhints = (
{
position = 362;
width = 79;
}
);
};
};
width = 803;
}
);
},
{
glyphname = afii10073.loclBGR;
layers = (
{
layerId = master01;
shapes = (
{
closed = 1;
nodes = (
(296,490,o),
(344,449,qs),
(393,407,o),
(393,340,qs),
(393,254,o),
(323,206,q),
(360,190,o),
(388,160,qs),
(436,110,o),
(436,25,qs),
(435,-78,o),
(388,-131,qs),
(326,-200,o),
(128,-200,o),
(76,-160,qs),
(14,-112,o),
(14,-56,q),
(107,-56,l),
(107,-75,o),
(150,-110,qs),
(174,-130,o),
(224,-130,qs),
(294,-130,o),
(329,-86,qs),
(356,-52,o),
(356,100,o),
(308,139,qs),
(272,168,o),
(207,168,qs),
(124,168,l),
(124,222,l),
(205,222,ls),
(255,222,o),
(281,256,qs),
(308,290,o),
(308,332,qs),
(308,378,o),
(283,402,qs),
(258,427,o),
(208,427,qs),
(160,427,o),
(137,407,qs),
(113,385,o),
(113,362,q),
(30,362,l),
(30,363,o),
(30,364,qs),
(30,412,o),
(76,452,qs),
(120,490,o),
(208,490,qs)
);
}
);
userData = {
com.fontlab.hintData = {
hhints = (
{
position = -201;
width = 70;
},
{
position = 174;
width = 54;
},
{
position = 430;
width = 68;
}
);
vhints = (
{
position = 298;
width = 87;
},
{
position = 343;
width = 80;
}
);
};
};
width = 463;
}
);
},
{
glyphname = afii10076.loclBGR;
layers = (
{
layerId = master01;
shapes = (
{
closed = 1;
nodes = (
(129,681,l),
(129,290,l),
(319,479,l),
(429,479,l),
(240,297,l),
(461,0,l),
(364,0,l),
(183,251,l),
(129,201,l),
(129,0,l),
(50,0,l),
(50,681,l)
);
}
);
userData = {
com.fontlab.hintData = {
hhints = (
{
position = 0;
width = 21;
},
{
position = 458;
width = 20;
}
);
vhints = (
{
position = 50;
width = 79;
}
);
};
};
width = 491;
}
);
},
{
glyphname = afii10077.loclBGR;
layers = (
{
layerId = master01;
shapes = (
{
closed = 1;
nodes = (
(200,479,l),
(287,479,l),
(477,0,l),
(388,0,l),
(244,396,l),
(99,0,l),
(10,0,l)
);
}
);
userData = {
com.fontlab.hintData = {
hhints = (
{
position = 0;
width = 21;
},
{
position = 458;
width = 20;
}
);
};
};
width = 487;
}
);
},
{
glyphname = afii10086.loclBGR;
layers = (
{
layerId = master01;
shapes = (
{
closed = 1;
nodes = (
(30,360,o),
(153,490,o),
(253,490,qs),
(278,490,o),
(326,483,q),
(326,681,l),
(405,681,l),
(405,483,l),
(452,490,o),
(478,490,qs),
(578,490,o),
(701,360,o),
(701,239,qs),
(701,119,o),
(578,-11,o),
(478,-11,qs),
(442,-11,o),
(405,-4,q),
(405,-200,l),
(326,-200,l),
(326,-4,l),
(289,-11,o),
(253,-11,qs),
(153,-11,o),
(30,119,o),
(30,239,qs)
);
},
{
closed = 1;
nodes = (
(186,57,o),
(256,57,qs),
(284,57,o),
(326,69,q),
(326,417,l),
(285,422,o),
(244,422,qs),
(183,422,o),
(110,325,o),
(110,154,o)
);
},
{
closed = 1;
nodes = (
(447,57,o),
(476,57,qs),
(545,57,o),
(621,154,o),
(621,326,o),
(549,420,o),
(488,420,qs),
(448,420,o),
(405,417,q),
(405,69,l)
);
}
);
userData = {
com.fontlab.hintData = {
hhints = (
{
position = -11;
width = 68;
},
{
position = 422;
width = 68;
},
{
position = 661;
width = 20;
}
);
vhints = (
{
position = 10;
width = 80;
},
{
position = 326;
width = 79;
},
{
position = 641;
width = 80;
}
);
};
};
width = 731;
}
);
},
{
glyphname = afii10089.loclBGR;
layers = (
{
layerId = master01;
shapes = (
{
closed = 1;
nodes = (
(50,479,l),
(129,479,l),
(129,331,ls),
(129,271,o),
(156,241,qs),
(184,210,o),
(241,210,qs),
(295,210,o),
(369,238,q),
(369,479,l),
(448,479,l),
(448,0,l),
(369,0,l),
(369,171,l),
(298,141,o),
(230,141,qs),
(149,141,o),
(50,231,o),
(50,325,qs)
);
}
);
userData = {
com.fontlab.hintData = {
hhints = (
{
position = 0;
width = 21;
},
{
position = 111;
width = 69;
},
{
position = 459;
width = 20;
}
);
vhints = (
{
position = 40;
width = 79;
},
{
position = 379;
width = 79;
}
);
};
};
width = 498;
}
);
},
{
glyphname = afii10088.loclBGR;
layers = (
{
layerId = master01;
shapes = (
{
closed = 1;
nodes = (
(50,479,l),
(128,479,l),
(128,181,ls),
(128,60,o),
(240,60,qs),
(295,60,o),
(378,162,o),
(378,238,qs),
(378,479,l),
(456,479,l),
(456,118,ls),
(456,68,o),
(542,68,q),
(542,-139,l),
(470,-139,l),
(470,0,l),
(388,0,o),
(378,95,q),
(324,-9,o),
(229,-9,qs),
(148,-9,o),
(98,34,qs),
(50,75,o),
(50,175,qs)
);
}
);
userData = {
com.fontlab.hintData = {
hhints = (
{
position = -9;
width = 69;
},
{
position = 459;
width = 20;
}
);
vhints = (
{
position = 50;
width = 78;
},
{
position = 378;
width = 78;
},
{
position = 470;
width = 72;
}
);
};
};
width = 562;
}
);
},
{
glyphname = afii10090.loclBGR;
layers = (
{
layerId = master01;
shapes = (
{
closed = 1;
nodes = (
(50,479,l),
(128,479,l),
(128,198,ls),
(128,129,o),
(193,59,o),
(311,59,o),
(378,159,o),
(378,247,qs),
(378,479,l),
(456,479,l),
(456,198,ls),
(456,129,o),
(521,59,o),
(630,59,o),
(667,108,qs),
(706,160,o),
(706,244,qs),
(706,479,l),
(784,479,l),
(784,0,l),
(717,0,l),
(708,93,l),
(661,-11,o),
(558,-11,qs),
(496,-11,o),
(412,50,o),
(393,104,q),
(348,-11,o),
(230,-11,qs),
(144,-11,o),
(50,101,o),
(50,198,qs)
);
}
);
userData = {
com.fontlab.hintData = {
hhints = (
{
position = -12;
width = 70;
},
{
position = 0;
width = 21;
},
{
position = 458;
width = 20;
}
);
vhints = (
{
position = 50;
width = 78;
},
{
position = 378;
width = 78;
},
{
position = 706;
width = 78;
},
{
position = 717;
width = 67;
}
);
};
};
width = 834;
}
);
},
{
glyphname = afii10091.loclBGR;
layers = (
{
layerId = master01;
shapes = (
{
closed = 1;
nodes = (
(50,479,l),
(128,479,l),
(128,198,ls),
(128,129,o),
(193,59,o),
(311,59,o),
(378,159,o),
(378,247,qs),
(378,479,l),
(456,479,l),
(456,198,ls),
(456,129,o),
(521,59,o),
(630,59,o),
(667,108,qs),
(706,160,o),
(706,244,qs),
(706,479,l),
(708,479,l),
(781,479,l),
(784,479,l),
(784,115,ls),
(784,65,o),
(870,65,q),
(870,-142,l),
(798,-142,l),
(798,-3,l),
(708,-3,o),
(708,93,q),
(661,-11,o),
(558,-11,qs),
(496,-11,o),
(412,50,o),
(393,104,q),
(348,-11,o),
(230,-11,qs),
(144,-11,o),
(50,101,o),
(50,198,qs)
);
}
);
userData = {
com.fontlab.hintData = {
hhints = (
{
position = -11;
width = 70;
}
);
vhints = (
{
position = 50;
width = 78;
},
{
position = 378;
width = 78;
},
{
position = 706;
width = 78;
},
{
position = 798;
width = 72;
}
);
};
};
width = 890;
}
);
},
{
glyphname = afii10094.loclBGR;
layers = (
{
layerId = master01;
shapes = (
{
closed = 1;
nodes = (
(51,479,l),
(131,479,l),
(131,320,l),
(154,351,o),
(230,390,o),
(273,390,qs),
(375,390,o),
(496,269,o),
(496,109,o),
(375,-11,o),
(171,-11,o),
(51,109,o),
(51,189,qs)
);
},
{
closed = 1;
nodes = (
(131,137,o),
(166,96,qs),
(200,56,o),
(268,56,qs),
(269,56,o),
(270,56,qs),
(340,57,o),
(416,136,o),
(416,243,o),
(344,322,o),
(205,322,o),
(131,244,o),
(131,190,qs)
);
}
);
userData = {
com.fontlab.hintData = {
hhints = (
{
position = -11;
width = 68;
},
{
position = 322;
width = 68;
},
{
position = 459;
width = 20;
}
);
vhints = (
{
position = 51;
width = 80;
},
{
position = 416;
width = 80;
}
);
};
};
width = 536;
}
);
},
{
glyphname = afii10092.loclBGR;
layers = (
{
layerId = master01;
shapes = (
{
closed = 1;
nodes = (
(20,479,l),
(245,479,l),
(244,320,l),
(267,351,o),
(344,390,o),
(387,390,qs),
(489,390,o),
(610,269,o),
(610,109,o),
(489,-11,o),
(285,-11,o),
(164,110,o),
(164,189,qs),
(166,412,l),
(20,412,l)
);
},
{
closed = 1;
nodes = (
(245,137,o),
(280,96,qs),
(314,56,o),
(382,56,qs),
(383,56,o),
(384,56,qs),
(454,57,o),
(530,136,o),
(530,243,o),
(458,322,o),
(319,322,o),
(245,244,o),
(245,190,qs)
);
}
);
userData = {
com.fontlab.hintData = {
hhints = (
{
position = -11;
width = 68;
},
{
position = 322;
width = 68;
},
{
position = 412;
width = 67;
}
);
vhints = (
{
position = 164;
width = 81;
},
{
position = 530;
width = 80;
}
);
};
};
width = 650;
}
);
},
{
glyphname = afii10096.loclBGR;
layers = (
{
layerId = master01;
shapes = (
{
closed = 1;
nodes = (
(50,681,l),
(129,681,l),
(129,295,l),
(184,295,l),
(196,376,o),
(242,425,qs),
(304,490,o),
(503,490,o),
(626,360,o),
(626,239,qs),
(626,119,o),
(503,-11,o),
(403,-11,qs),
(304,-11,o),
(242,54,qs),
(184,116,o),
(180,227,q),
(129,227,l),
(129,0,l),
(50,0,l)
);
},
{
closed = 1;
nodes = (
(331,57,o),
(470,57,o),
(546,154,o),
(546,325,o),
(474,422,o),
(335,422,o),
(261,325,o),
(261,154,o)
);
}
);
userData = {
com.fontlab.hintData = {
hhints = (
{
position = -11;
width = 68;
},
{
position = 0;
width = 21;
},
{
position = 227;
width = 68;
},
{
position = 422;
width = 68;
},
{
position = 661;
width = 20;
}
);
vhints = (
{
position = 50;
width = 79;
},
{
position = 180;
width = 81;
},
{
position = 546;
width = 80;
}
);
};
};
width = 666;
}
);
},
{
glyphname = zero;
layers = (
{
layerId = master01;
shapes = (
{
closed = 1;
nodes = (
(184,640,o),
(412,640,o),
(544,472,o),
(544,157,o),
(412,-11,o),
(184,-11,o),
(51,155,o),
(51,474,o)
);
},
{
closed = 1;
nodes = (
(217,61,o),
(378,61,o),
(462,192,o),
(462,437,o),
(378,568,o),
(217,568,o),
(133,437,o),
(133,192,o)
);
}
);
width = 594;
}
);
unicode = 48;
},
{
glyphname = one;
layers = (
{
layerId = master01;
shapes = (
{
closed = 1;
nodes = (
(49,580,l),
(116,589,o),
(166,631,q),
(230,631,l),
(230,0,l),
(152,0,l),
(152,537,l),
(102,505,o),
(49,502,q)
);
}
);
width = 331;
}
);
unicode = 49;
},
{
glyphname = two;
layers = (
{
layerId = master01;
shapes = (
{
closed = 1;
nodes = (
(64,93,ls),
(64,204,o),
(148,256,qs),
(174,272,o),
(208,286,qs),
(332,336,ls),
(428,374,o),
(428,461,qs),
(428,509,o),
(362,570,o),
(243,570,o),
(168,520,o),
(162,470,q),
(75,470,l),
(80,552,o),
(202,640,o),
(393,640,o),
(513,536,o),
(513,383,o),
(434,293,o),
(365,266,qs),
(238,215,ls),
(190,195,o),
(143,144,o),
(143,103,qs),
(143,73,l),
(508,73,l),
(508,0,l),
(64,0,l)
);
}
);
width = 580;
}
);
unicode = 50;
},
{
glyphname = three;
layers = (
{
layerId = master01;
shapes = (
{
closed = 1;
nodes = (
(134,193,l),
(136,129,o),
(227,61,o),
(367,61,o),
(444,128,o),
(444,227,o),
(370,290,o),
(287,290,qs),
(215,290,l),
(215,353,l),
(264,353,ls),
(336,353,o),
(420,410,o),
(420,506,o),
(352,568,o),
(240,568,o),
(165,529,o),
(152,476,q),
(70,476,l),
(81,559,o),
(197,640,o),
(380,640,o),
(505,543,o),
(505,468,qs),
(505,368,o),
(395,329,q),
(455,312,o),
(529,234,o),
(529,173,qs),
(529,90,o),
(403,-11,o),
(197,-11,o),
(52,96,o),
(52,193,q)
);
}
);
width = 591;
}
);
unicode = 51;
},
{
glyphname = four;
layers = (
{
layerId = master01;
shapes = (
{
closed = 1;
nodes = (
(26,213,l),
(355,638,l),
(428,638,l),
(428,220,l),
(537,220,l),
(537,152,l),
(428,152,l),
(428,0,l),
(351,0,l),
(351,152,l),
(26,152,l)
);
},
{
closed = 1;
nodes = (
(353,213,l),
(353,513,l),
(120,213,l)
);
}
);
width = 559;
}
);
unicode = 52;
},
{
glyphname = five;
layers = (
{
layerId = master01;
shapes = (
{
closed = 1;
nodes = (
(144,175,l),
(144,92,o),
(228,68,qs),
(251,61,o),
(278,61,qs),
(281,61,o),
(285,61,qs),
(349,61,o),
(427,142,o),
(427,204,qs),
(427,323,o),
(272,323,qs),
(103,323,l),
(130,629,l),
(479,629,l),
(479,557,l),
(206,557,l),
(189,376,l),
(241,385,o),
(288,385,qs),
(391,385,o),
(509,294,o),
(509,110,o),
(385,-11,o),
(189,-11,o),
(65,88,o),
(65,175,q)
);
}
);
width = 565;
}
);
unicode = 53;
},
{
glyphname = six;
layers = (
{
layerId = master01;
shapes = (
{
closed = 1;
nodes = (
(191,640,o),
(312,640,qs),
(396,640,o),
(502,546,o),
(510,470,q),
(425,470,l),
(408,568,o),
(228,568,o),
(131,420,o),
(131,292,qs),
(131,239,o),
(136,204,q),
(142,296,o),
(243,379,o),
(401,379,o),
(515,268,o),
(515,95,o),
(397,-12,o),
(301,-12,qs),
(189,-12,o),
(51,168,o),
(51,461,o)
);
},
{
closed = 1;
nodes = (
(244,61,o),
(358,61,o),
(433,127,o),
(433,243,o),
(358,309,o),
(245,309,o),
(170,238,o),
(170,128,o)
);
}
);
width = 573;
}
);
unicode = 54;
},
{
glyphname = seven;
layers = (
{
layerId = master01;
shapes = (
{
closed = 1;
nodes = (
(24,629,l),
(452,629,l),
(452,556,l),
(164,0,l),
(58,0,l),
(360,553,l),
(24,553,l)
);
}
);
width = 470;
}
);
unicode = 55;
},
{
glyphname = eight;
layers = (
{
layerId = master01;
shapes = (
{
closed = 1;
nodes = (
(65,230,o),
(146,308,o),
(211,318,q),
(86,375,o),
(86,473,qs),
(86,548,o),
(210,640,o),
(415,640,o),
(547,542,o),
(547,465,qs),
(547,413,o),
(478,331,o),
(411,321,q),
(428,315,l),
(497,289,o),
(571,218,o),
(571,157,qs),
(571,81,o),
(436,-11,o),
(207,-11,o),
(65,91,o),
(65,168,qs)
);
},
{
closed = 1;
nodes = (
(243,61,o),
(398,61,o),
(489,113,o),
(489,187,o),
(441,232,o),
(399,247,qs),
(286,289,l),
(223,282,o),
(147,217,o),
(147,121,o)
);
},
{
closed = 1;
nodes = (
(169,436,o),
(213,397,o),
(254,381,qs),
(327,353,l),
(387,355,o),
(465,414,o),
(465,509,o),
(383,568,o),
(253,568,o),
(169,511,o),
(169,463,qs)
);
}
);
width = 625;
}
);
unicode = 56;
},
{
glyphname = nine;
layers = (
{
layerId = master01;
shapes = (
{
closed = 1;
nodes = (
(66,534,o),
(184,640,o),
(282,640,qs),
(332,640,o),
(424,596,o),
(458,555,qs),
(530,467,o),
(530,326,qs),
(530,80,o),
(394,12,qs),
(350,-11,o),
(296,-11,qs),
(294,-11,o),
(292,-11,qs),
(189,-11,o),
(69,101,o),
(69,186,q),
(152,186,l),
(154,129,o),
(222,61,o),
(274,61,qs),
(276,61,o),
(279,61,qs),
(328,61,o),
(358,80,qs),
(449,136,o),
(449,333,qs),
(449,378,o),
(444,411,q),
(434,330,o),
(337,250,o),
(180,250,o),
(66,361,o),
(66,447,qs)
);
},
{
closed = 1;
nodes = (
(223,319,o),
(336,319,o),
(411,390,o),
(411,500,o),
(336,567,o),
(222,567,o),
(148,501,o),
(148,385,o)
);
}
);
width = 581;
}
);
unicode = 57;
},
{
glyphname = zero.propold;
layers = (
{
layerId = master01;
shapes = (
{
closed = 1;
nodes = (
(167,551,o),
(364,551,o),
(481,405,o),
(481,135,o),
(364,-11,o),
(167,-11,o),
(51,134,o),
(51,406,o)
);
},
{
closed = 1;
nodes = (
(132,59,o),
(400,59,o),
(400,270,qs),
(400,482,o),
(132,482,o),
(132,270,qs)
);
}
);
width = 531;
}
);
},
{
glyphname = one.propold;
layers = (
{
layerId = master01;
shapes = (
{
closed = 1;
nodes = (
(49,489,l),
(118,500,o),
(166,541,q),
(230,541,l),
(230,0,l),
(152,0,l),
(152,446,l),
(101,414,o),
(49,412,q)
);
}
);
width = 331;
}
);
},
{
glyphname = two.propold;
layers = (
{
layerId = master01;
shapes = (
{
closed = 1;
nodes = (
(64,84,ls),
(64,164,o),
(138,247,o),
(214,264,q),
(317,289,ls),
(370,301,o),
(421,349,o),
(421,427,o),
(357,481,o),
(241,481,o),
(168,435,o),
(162,388,q),
(75,388,l),
(80,466,o),
(196,551,o),
(385,551,o),
(501,454,o),
(501,322,o),
(427,249,o),
(351,231,qs),
(240,204,l),
(143,182,o),
(143,105,qs),
(143,73,l),
(500,73,l),
(500,0,l),
(64,0,l)
);
}
);
width = 575;
}
);
},
{
glyphname = three.propold;
layers = (
{
layerId = master01;
shapes = (
{
closed = 1;
nodes = (
(108,88,l),
(110,19,o),
(193,-46,o),
(324,-46,o),
(412,25,o),
(412,79,qs),
(412,167,o),
(323,200,qs),
(293,211,o),
(251,211,qs),
(190,211,l),
(190,274,l),
(233,274,ls),
(305,274,o),
(388,326,o),
(388,424,o),
(320,483,o),
(260,483,qs),
(150,483,o),
(129,390,q),
(46,390,l),
(68,551,o),
(259,551,qs),
(352,551,o),
(468,458,o),
(468,384,qs),
(468,333,o),
(411,271,o),
(360,252,q),
(421,232,o),
(493,137,o),
(493,74,qs),
(493,-8,o),
(364,-114,o),
(160,-114,o),
(28,-10,o),
(28,88,q)
);
}
);
width = 562;
}
);
},
{
glyphname = four.propold;
layers = (
{
layerId = master01;
shapes = (
{
closed = 1;
nodes = (
(24,115,l),
(353,546,l),
(427,546,l),
(427,121,l),
(536,121,l),
(536,54,l),
(427,54,l),
(427,-105,l),
(349,-105,l),
(349,54,l),
(24,54,l)
);
},
{
closed = 1;
nodes = (
(351,115,l),
(351,422,l),
(112,115,l)
);
}
);
width = 560;
}
);
},
{
glyphname = five.propold;
layers = (
{
layerId = master01;
shapes = (
{
closed = 1;
nodes = (
(142,75,l),
(142,18,o),
(212,-42,o),
(338,-42,o),
(426,42,o),
(426,169,o),
(345,241,o),
(266,241,qs),
(104,241,l),
(132,545,l),
(477,545,l),
(477,474,l),
(205,474,l),
(187,296,l),
(233,306,o),
(281,306,qs),
(386,306,o),
(506,200,o),
(506,12,o),
(372,-114,o),
(182,-114,o),
(65,-14,o),
(65,75,q)
);
}
);
width = 569;
}
);
},
{
glyphname = six.propold;
layers = (
{
layerId = master01;
shapes = (
{
closed = 1;
nodes = (
(191,640,o),
(312,640,qs),
(396,640,o),
(502,546,o),
(510,470,q),
(425,470,l),
(408,568,o),
(228,568,o),
(131,420,o),
(131,292,qs),
(131,239,o),
(136,204,q),
(142,296,o),
(243,379,o),
(401,379,o),
(515,268,o),
(515,95,o),
(397,-12,o),
(301,-12,qs),
(189,-12,o),
(51,168,o),
(51,461,o)
);
},
{
closed = 1;
nodes = (
(244,61,o),
(358,61,o),
(433,127,o),
(433,243,o),
(358,309,o),
(245,309,o),
(170,238,o),
(170,128,o)
);
}
);
width = 573;
}
);
},
{
glyphname = seven.propold;
layers = (
{
layerId = master01;
shapes = (
{
closed = 1;
nodes = (
(24,551,l),
(452,551,l),
(452,484,l),
(152,-98,l),
(55,-98,l),
(369,481,l),
(24,481,l)
);
}
);
width = 470;
}
);
},
{
glyphname = eight.propold;
layers = (
{
layerId = master01;
shapes = (
{
closed = 1;
nodes = (
(55,230,o),
(136,308,o),
(201,318,q),
(76,375,o),
(76,473,qs),
(76,548,o),
(200,640,o),
(405,640,o),
(537,542,o),
(537,465,qs),
(537,413,o),
(468,331,o),
(401,321,q),
(418,315,l),
(487,289,o),
(561,218,o),
(561,157,qs),
(561,81,o),
(426,-11,o),
(197,-11,o),
(55,91,o),
(55,168,qs)
);
},
{
closed = 1;
nodes = (
(233,61,o),
(388,61,o),
(479,113,o),
(479,187,o),
(431,232,o),
(389,247,qs),
(276,289,l),
(213,282,o),
(137,217,o),
(137,121,o)
);
},
{
closed = 1;
nodes = (
(159,436,o),
(203,397,o),
(244,381,qs),
(317,353,l),
(377,355,o),
(455,414,o),
(455,509,o),
(373,568,o),
(243,568,o),
(159,511,o),
(159,463,qs)
);
}
);
width = 615;
}
);
},
{
glyphname = nine.propold;
layers = (
{
layerId = master01;
shapes = (
{
closed = 1;
nodes = (
(66,441,o),
(184,551,o),
(286,551,qs),
(340,551,o),
(432,500,o),
(464,456,qs),
(530,366,o),
(530,67,o),
(400,-114,o),
(281,-114,qs),
(188,-114,o),
(70,-3,o),
(70,83,q),
(153,83,l),
(155,26,o),
(220,-42,o),
(324,-42,o),
(356,-22,qs),
(448,35,o),
(449,238,qs),
(449,283,o),
(444,318,q),
(436,241,o),
(342,156,o),
(185,156,o),
(66,268,o),
(66,354,qs)
);
},
{
closed = 1;
nodes = (
(220,226,o),
(337,226,o),
(411,300,o),
(411,412,o),
(339,481,o),
(219,481,o),
(148,412,o),
(148,295,o)
);
}
);
width = 580;
}
);
},
{
glyphname = afii57407;
layers = (
{
layerId = master01;
shapes = (
{
closed = 1;
nodes = (
(453,476,o),
(369,476,q),
(352,568,o),
(235,568,qs),
(179,568,o),
(116,517,o),
(116,441,o),
(154,396,o),
(264,336,o),
(306,269,o),
(306,206,qs),
(306,161,l),
(228,161,l),
(228,200,ls),
(228,246,o),
(209,272,qs),
(199,286,o),
(165,308,o),
(140,322,qs),
(82,354,o),
(30,423,o),
(30,475,qs),
(30,544,o),
(143,640,o),
(338,640,o),
(446,550,o),
(453,476,q)
);
},
{
closed = 1;
nodes = (
(292,-11,o),
(240,-11,o),
(206,21,o),
(206,68,o),
(240,102,o),
(292,102,o),
(324,68,o),
(324,21,o)
);
}
);
width = 499;
}
);
unicode = 1567;
},
{
glyphname = period;
layers = (
{
layerId = master01;
shapes = (
{
closed = 1;
nodes = (
(63,104,o),
(114,104,o),
(148,71,o),
(148,24,o),
(114,-9,o),
(63,-9,o),
(30,24,o),
(30,71,o)
);
}
);
width = 179;
}
);
unicode = 46;
},
{
glyphname = comma;
layers = (
{
layerId = master01;
shapes = (
{
closed = 1;
nodes = (
(92,-50,o),
(105,-5,q),
(82,-3,o),
(52,23,o),
(52,67,o),
(83,97,o),
(140,97,o),
(178,52,o),
(178,-16,o),
(134,-87,o),
(89,-109,q),
(30,-80,l)
);
}
);
width = 210;
}
);
unicode = 44;
},
{
glyphname = colon;
layers = (
{
layerId = master01;
shapes = (
{
closed = 1;
nodes = (
(89,136,o),
(140,136,o),
(174,103,o),
(174,56,o),
(140,23,o),
(89,23,o),
(56,56,o),
(56,103,o)
);
},
{
closed = 1;
nodes = (
(89,442,o),
(140,442,o),
(174,409,o),
(174,362,o),
(140,329,o),
(89,329,o),
(56,362,o),
(56,409,o)
);
}
);
width = 231;
}
);
unicode = 58;
},
{
glyphname = semicolon;
layers = (
{
layerId = master01;
shapes = (
{
closed = 1;
nodes = (
(119,-50,o),
(132,-5,q),
(109,-3,o),
(79,23,o),
(79,67,o),
(110,97,o),
(167,97,o),
(205,52,o),
(205,-16,o),
(161,-87,o),
(116,-109,q),
(57,-80,l)
);
},
{
closed = 1;
nodes = (
(115,442,o),
(166,442,o),
(200,409,o),
(200,362,o),
(166,329,o),
(115,329,o),
(82,362,o),
(82,409,o)
);
}
);
width = 262;
}
);
unicode = 59;
},
{
glyphname = exclam;
layers = (
{
layerId = master01;
shapes = (
{
closed = 1;
nodes = (
(115,104,o),
(166,104,o),
(201,71,o),
(201,24,o),
(166,-9,o),
(115,-9,o),
(82,24,o),
(82,71,o)
);
},
{
closed = 1;
nodes = (
(182,627,l),
(173,176,l),
(109,176,l),
(99,627,l)
);
}
);
width = 278;
}
);
unicode = 33;
},
{
glyphname = question;
layers = (
{
layerId = master01;
shapes = (
{
closed = 1;
nodes = (
(37,550,o),
(145,640,o),
(340,640,o),
(453,544,o),
(453,475,qs),
(453,423,o),
(401,354,o),
(343,322,qs),
(318,308,o),
(284,286,o),
(274,272,qs),
(255,246,o),
(255,200,qs),
(255,161,l),
(177,161,l),
(177,206,ls),
(177,269,o),
(219,336,o),
(329,396,o),
(367,441,o),
(367,517,o),
(304,568,o),
(248,568,qs),
(131,568,o),
(114,476,q),
(30,476,l)
);
},
{
closed = 1;
nodes = (
(191,102,o),
(243,102,o),
(277,68,o),
(277,21,o),
(243,-11,o),
(191,-11,o),
(159,21,o),
(159,68,o)
);
}
);
width = 499;
}
);
unicode = 63;
},
{
glyphname = periodcentered;
layers = (
{
layerId = master01;
shapes = (
{
closed = 1;
nodes = (
(89,378,o),
(140,378,o),
(174,345,o),
(174,298,o),
(140,265,o),
(89,265,o),
(56,298,o),
(56,345,o)
);
}
);
width = 231;
}
);
unicode = 183;
},
{
glyphname = asterisk;
layers = (
{
layerId = master01;
shapes = (
{
closed = 1;
nodes = (
(80,610,l),
(186,556,l),
(176,684,l),
(238,684,l),
(228,556,l),
(334,610,l),
(358,556,l),
(242,516,l),
(332,427,l),
(288,388,l),
(208,492,l),
(128,388,l),
(83,427,l),
(173,516,l),
(56,556,l)
);
}
);
width = 412;
}
);
unicode = 42;
},
{
glyphname = numbersign;
layers = (
{
layerId = master01;
shapes = (
{
closed = 1;
nodes = (
(58,224,l),
(158,224,l),
(177,402,l),
(76,402,l),
(82,455,l),
(182,455,l),
(197,593,l),
(271,593,l),
(256,455,l),
(410,455,l),
(425,593,l),
(498,593,l),
(483,455,l),
(586,455,l),
(580,402,l),
(478,402,l),
(459,224,l),
(562,224,l),
(556,170,l),
(453,170,l),
(439,31,l),
(365,31,l),
(380,170,l),
(226,170,l),
(212,31,l),
(138,31,l),
(152,170,l),
(53,170,l)
);
},
{
closed = 1;
nodes = (
(385,224,l),
(404,402,l),
(251,402,l),
(232,224,l)
);
}
);
width = 627;
}
);
unicode = 35;
},
{
glyphname = slash;
layers = (
{
layerId = master01;
shapes = (
{
closed = 1;
nodes = (
(308,731,l),
(388,731,l),
(136,-73,l),
(57,-73,l)
);
}
);
width = 432;
}
);
unicode = 47;
},
{
glyphname = backslash;
layers = (
{
layerId = master01;
shapes = (
{
closed = 1;
nodes = (
(124,731,l),
(376,-73,l),
(296,-73,l),
(45,731,l)
);
}
);
width = 432;
}
);
unicode = 92;
},
{
glyphname = uni203D;
layers = (
{
layerId = master01;
shapes = (
{
closed = 1;
nodes = (
(37,550,o),
(145,640,o),
(340,640,o),
(453,544,o),
(453,475,qs),
(453,423,o),
(401,354,o),
(343,322,qs),
(318,308,o),
(284,286,o),
(274,272,qs),
(255,246,o),
(255,200,qs),
(255,161,l),
(253,161,l),
(177,161,l),
(167,499,l),
(262,499,l),
(260,428,o),
(258,356,q),
(266,361,o),
(274,366,qs),
(329,396,o),
(367,441,o),
(367,517,o),
(304,568,o),
(248,568,qs),
(131,568,o),
(114,476,q),
(30,476,l)
);
},
{
closed = 1;
nodes = (
(191,102,o),
(243,102,o),
(277,68,o),
(277,21,o),
(243,-11,o),
(191,-11,o),
(159,21,o),
(159,68,o)
);
}
);
width = 499;
}
);
unicode = 8253;
},
{
glyphname = hyphen;
layers = (
{
layerId = master01;
shapes = (
{
closed = 1;
nodes = (
(38,325,l),
(310,325,l),
(310,257,l),
(38,257,l)
);
}
);
width = 349;
}
);
unicode = 45;
},
{
glyphname = endash;
layers = (
{
layerId = master01;
shapes = (
{
closed = 1;
nodes = (
(55,325,l),
(419,325,l),
(419,257,l),
(55,257,l)
);
}
);
width = 474;
}
);
unicode = 8211;
},
{
glyphname = emdash;
layers = (
{
layerId = master01;
shapes = (
{
closed = 1;
nodes = (
(55,325,l),
(671,325,l),
(671,257,l),
(55,257,l)
);
}
);
width = 726;
}
);
unicode = 8212;
},
{
glyphname = underscore;
layers = (
{
layerId = master01;
shapes = (
{
closed = 1;
nodes = (
(671,-56,l),
(671,-124,l),
(55,-124,l),
(55,-56,l)
);
}
);
width = 726;
}
);
unicode = 95;
},
{
glyphname = parenleft;
layers = (
{
layerId = master01;
shapes = (
{
closed = 1;
nodes = (
(173,638,o),
(271,728,q),
(328,687,l),
(155,512,o),
(155,102,o),
(328,-73,q),
(271,-113,l),
(173,-24,o),
(73,192,o),
(73,423,o)
);
}
);
width = 356;
}
);
unicode = 40;
},
{
glyphname = parenright;
layers = (
{
layerId = master01;
shapes = (
{
closed = 1;
nodes = (
(201,102,o),
(201,512,o),
(28,687,q),
(85,728,l),
(183,638,o),
(283,423,o),
(283,192,o),
(183,-24,o),
(85,-113,q),
(28,-73,l)
);
}
);
width = 356;
}
);
unicode = 41;
},
{
glyphname = braceleft;
layers = (
{
layerId = master01;
shapes = (
{
closed = 1;
nodes = (
(75,343,l),
(92,343,ls),
(111,343,o),
(128,378,o),
(128,422,qs),
(128,513,ls),
(128,680,o),
(242,730,qs),
(282,748,o),
(341,748,q),
(341,679,l),
(267,679,o),
(206,594,o),
(206,512,qs),
(206,420,ls),
(206,334,o),
(154,307,q),
(154,303,l),
(206,278,o),
(206,190,qs),
(206,97,ls),
(206,16,o),
(267,-69,o),
(341,-69,q),
(341,-138,l),
(128,-138,o),
(128,96,qs),
(128,188,ls),
(128,231,o),
(111,267,o),
(92,267,qs),
(75,267,l)
);
}
);
width = 349;
}
);
unicode = 123;
},
{
glyphname = braceright;
layers = (
{
layerId = master01;
shapes = (
{
closed = 1;
nodes = (
(82,-69,o),
(143,16,o),
(143,97,qs),
(143,190,ls),
(143,278,o),
(195,303,q),
(195,307,l),
(143,334,o),
(143,420,qs),
(143,512,ls),
(143,594,o),
(82,679,o),
(8,679,q),
(8,748,l),
(221,748,o),
(221,513,qs),
(221,422,ls),
(221,378,o),
(238,343,o),
(257,343,qs),
(274,343,l),
(274,267,l),
(257,267,ls),
(238,267,o),
(221,231,o),
(221,188,qs),
(221,96,ls),
(221,-72,o),
(107,-120,qs),
(66,-138,o),
(8,-138,q),
(8,-69,l)
);
}
);
width = 349;
}
);
unicode = 125;
},
{
glyphname = bracketleft;
layers = (
{
layerId = master01;
shapes = (
{
closed = 1;
nodes = (
(101,731,l),
(299,731,l),
(299,661,l),
(180,661,l),
(180,-32,l),
(299,-32,l),
(299,-102,l),
(101,-102,l)
);
}
);
width = 317;
}
);
unicode = 91;
},
{
glyphname = bracketright;
layers = (
{
layerId = master01;
shapes = (
{
closed = 1;
nodes = (
(105,-32,l),
(105,661,l),
(-14,661,l),
(-14,731,l),
(184,731,l),
(184,-102,l),
(-14,-102,l),
(-14,-32,l)
);
}
);
width = 285;
}
);
unicode = 93;
},
{
glyphname = quoteleft;
layers = (
{
layerId = master01;
shapes = (
{
closed = 1;
nodes = (
(83,659,o),
(128,681,q),
(184,652,l),
(122,620,o),
(109,576,q),
(132,574,o),
(162,548,o),
(162,504,o),
(131,473,o),
(75,473,o),
(36,519,o),
(36,588,o)
);
}
);
width = 214;
}
);
unicode = 8216;
},
{
glyphname = quoteright;
layers = (
{
layerId = master01;
shapes = (
{
closed = 1;
nodes = (
(77,535,o),
(90,579,q),
(67,581,o),
(36,607,o),
(36,651,o),
(68,681,o),
(125,681,o),
(162,637,o),
(162,567,o),
(115,496,o),
(71,473,q),
(15,503,l)
);
}
);
width = 214;
}
);
unicode = 8217;
},
{
glyphname = quotereversed;
layers = (
{
layerId = master01;
shapes = (
{
closed = 1;
nodes = (
(75,681,o),
(131,681,o),
(162,650,o),
(162,606,o),
(132,580,o),
(109,578,q),
(122,534,o),
(184,502,q),
(128,473,l),
(83,495,o),
(36,566,o),
(36,635,o)
);
}
);
width = 214;
}
);
unicode = 8219;
},
{
glyphname = uni201F;
layers = (
{
layerId = master01;
shapes = (
{
closed = 1;
nodes = (
(240,681,o),
(296,681,o),
(327,650,o),
(327,606,o),
(297,580,o),
(274,578,q),
(287,534,o),
(349,502,q),
(293,473,l),
(248,495,o),
(201,566,o),
(201,635,o)
);
},
{
closed = 1;
nodes = (
(75,681,o),
(131,681,o),
(162,650,o),
(162,606,o),
(132,580,o),
(109,578,q),
(122,534,o),
(184,502,q),
(128,473,l),
(83,495,o),
(36,566,o),
(36,635,o)
);
}
);
width = 379;
}
);
unicode = 8223;
},
{
glyphname = guillemotleft;
layers = (
{
layerId = master01;
shapes = (
{
closed = 1;
nodes = (
(176,429,l),
(261,429,l),
(123,233,l),
(261,37,l),
(176,37,l),
(30,233,l)
);
},
{
closed = 1;
nodes = (
(349,429,l),
(434,429,l),
(296,233,l),
(434,37,l),
(349,37,l),
(203,233,l)
);
}
);
width = 464;
}
);
unicode = 171;
},
{
glyphname = guillemotright;
layers = (
{
layerId = master01;
shapes = (
{
closed = 1;
nodes = (
(168,233,l),
(30,429,l),
(115,429,l),
(261,233,l),
(115,37,l),
(30,37,l)
);
},
{
closed = 1;
nodes = (
(341,233,l),
(203,429,l),
(288,429,l),
(434,233,l),
(288,37,l),
(203,37,l)
);
}
);
width = 464;
}
);
unicode = 187;
},
{
glyphname = guilsinglleft;
layers = (
{
layerId = master01;
shapes = (
{
closed = 1;
nodes = (
(176,429,l),
(261,429,l),
(123,233,l),
(261,37,l),
(176,37,l),
(30,233,l)
);
}
);
width = 291;
}
);
unicode = 8249;
},
{
glyphname = guilsinglright;
layers = (
{
layerId = master01;
shapes = (
{
closed = 1;
nodes = (
(168,233,l),
(30,429,l),
(115,429,l),
(261,233,l),
(115,37,l),
(30,37,l)
);
}
);
width = 291;
}
);
unicode = 8250;
},
{
glyphname = quotedbl;
layers = (
{
layerId = master01;
shapes = (
{
closed = 1;
nodes = (
(110,681,l),
(99,461,l),
(39,461,l),
(28,681,l)
);
},
{
closed = 1;
nodes = (
(278,681,l),
(267,461,l),
(207,461,l),
(196,681,l)
);
}
);
width = 306;
}
);
unicode = 34;
},
{
glyphname = quotesingle;
layers = (
{
layerId = master01;
shapes = (
{
closed = 1;
nodes = (
(109,677,l),
(98,457,l),
(38,457,l),
(27,677,l)
);
}
);
width = 136;
}
);
unicode = 39;
},
{
glyphname = at;
layers = (
{
layerId = master01;
shapes = (
{
closed = 1;
nodes = (
(133,467,o),
(251,578,o),
(414,640,o),
(596,640,o),
(667,613,qs),
(809,559,o),
(866,430,qs),
(894,366,o),
(894,300,qs),
(894,178,o),
(765,28,o),
(679,28,qs),
(636,28,o),
(584,64,o),
(579,98,q),
(576,114,l),
(558,76,o),
(498,28,o),
(458,28,qs),
(385,28,o),
(289,126,o),
(289,201,qs),
(289,300,o),
(421,435,o),
(512,435,qs),
(572,435,o),
(641,363,o),
(641,290,qs),
(641,138,ls),
(641,87,o),
(680,87,qs),
(681,87,o),
(702,87,o),
(746,114,o),
(766,140,qs),
(812,201,o),
(812,296,qs),
(812,415,o),
(650,569,o),
(511,569,qs),
(351,569,o),
(148,366,o),
(148,68,o),
(360,-117,o),
(545,-117,q),
(545,-181,l),
(332,-181,o),
(198,-66,qs),
(135,-12,o),
(67,137,o),
(67,315,o)
);
},
{
closed = 1;
nodes = (
(363,149,o),
(418,91,o),
(500,91,o),
(552,138,o),
(575,183,q),
(575,289,ls),
(575,290,o),
(575,292,qs),
(575,373,o),
(458,373,o),
(363,276,o),
(363,202,qs)
);
}
);
width = 940;
}
);
unicode = 64;
},
{
glyphname = ampersand;
layers = (
{
layerId = master01;
shapes = (
{
closed = 1;
nodes = (
(184,317,o),
(276,332,q),
(262,345,l),
(185,412,o),
(185,492,qs),
(185,555,o),
(290,639,o),
(463,639,o),
(566,555,o),
(566,436,o),
(488,350,o),
(400,312,q),
(558,173,l),
(626,255,o),
(670,380,q),
(725,350,l),
(680,213,o),
(610,128,q),
(653,91,ls),
(673,74,o),
(704,58,o),
(753,58,o),
(792,95,o),
(795,140,q),
(869,140,l),
(865,68,o),
(798,-11,o),
(734,-11,qs),
(695,-11,o),
(629,21,o),
(590,56,q),
(564,78,l),
(464,-11,o),
(336,-11,qs),
(231,-11,o),
(89,94,o),
(89,242,o)
);
},
{
closed = 1;
nodes = (
(258,59,o),
(430,59,o),
(511,125,q),
(325,288,l),
(248,278,o),
(175,224,o),
(175,128,o)
);
},
{
closed = 1;
nodes = (
(297,403,o),
(327,377,q),
(354,352,l),
(458,400,o),
(474,452,qs),
(480,469,o),
(480,488,qs),
(480,524,o),
(425,572,o),
(326,572,o),
(271,517,o),
(271,453,o)
);
}
);
width = 916;
}
);
unicode = 38;
},
{
glyphname = paragraph;
layers = (
{
layerId = master01;
shapes = (
{
closed = 1;
nodes = (
(134,637,o),
(211,637,qs),
(211,637,o),
(266,637,q),
(266,369,l),
(266,369,o),
(211,369,qs),
(128,369,o),
(50,441,o),
(50,567,o)
);
},
{
closed = 1;
nodes = (
(211,637,l),
(419,637,l),
(419,577,l),
(211,577,l)
);
},
{
closed = 1;
nodes = (
(340,637,l),
(419,637,l),
(419,0,l),
(340,0,l)
);
},
{
closed = 1;
nodes = (
(211,637,l),
(290,637,l),
(290,0,l),
(211,0,l)
);
}
);
width = 469;
}
);
unicode = 182;
},
{
glyphname = copyright;
layers = (
{
layerId = master01;
shapes = (
{
closed = 1;
nodes = (
(30,487,o),
(129,585,qs),
(229,684,o),
(374,684,qs),
(518,684,o),
(619,585,qs),
(720,485,o),
(720,340,qs),
(720,198,o),
(618,96,qs),
(518,-4,o),
(374,-4,qs),
(198,-4,o),
(114,80,qs),
(30,164,o),
(30,340,qs)
);
},
{
closed = 1;
nodes = (
(75,191,o),
(148,114,qs),
(223,36,o),
(374,36,qs),
(506,36,o),
(589,125,qs),
(677,219,o),
(677,340,qs),
(677,469,o),
(590,556,qs),
(503,643,o),
(374,643,qs),
(249,643,o),
(160,554,qs),
(75,469,o),
(75,340,qs)
);
},
{
pos = (141,126);
ref = c;
scale = (0.88,0.88);
}
);
width = 753;
}
);
unicode = 169;
},
{
glyphname = registered;
layers = (
{
layerId = master01;
shapes = (
{
closed = 1;
nodes = (
(30,487,o),
(129,585,qs),
(229,684,o),
(374,684,qs),
(518,684,o),
(619,585,qs),
(720,485,o),
(720,340,qs),
(720,198,o),
(618,96,qs),
(518,-4,o),
(374,-4,qs),
(198,-4,o),
(114,80,qs),
(30,164,o),
(30,340,qs)
);
},
{
closed = 1;
nodes = (
(75,191,o),
(148,114,qs),
(223,36,o),
(374,36,qs),
(506,36,o),
(589,125,qs),
(677,219,o),
(677,340,qs),
(677,469,o),
(590,556,qs),
(503,643,o),
(374,643,qs),
(249,643,o),
(160,554,qs),
(75,469,o),
(75,340,qs)
);
},
{
pos = (169,122);
ref = R;
scale = (0.6887,0.6854);
}
);
width = 765;
}
);
unicode = 174;
},
{
glyphname = bar;
layers = (
{
layerId = master01;
shapes = (
{
closed = 1;
nodes = (
(101,750,l),
(180,750,l),
(180,-122,l),
(101,-122,l)
);
}
);
width = 280;
}
);
unicode = 124;
},
{
glyphname = brokenbar;
layers = (
{
layerId = master01;
shapes = (
{
closed = 1;
nodes = (
(100,377,l),
(100,629,l),
(179,629,l),
(179,377,l)
);
},
{
closed = 1;
nodes = (
(179,0,l),
(100,0,l),
(100,229,l),
(179,229,l)
);
}
);
width = 279;
}
);
unicode = 166;
},
{
glyphname = Euro;
layers = (
{
layerId = master01;
shapes = (
{
closed = 1;
nodes = (
(34,274,l),
(82,274,l),
(81,294,o),
(81,316,qs),
(81,324,o),
(81,331,q),
(12,331,l),
(34,397,l),
(87,397,l),
(102,492,o),
(156,553,qs),
(231,640,o),
(337,640,qs),
(438,640,o),
(552,539,o),
(575,458,q),
(490,441,l),
(470,500,o),
(394,569,o),
(337,569,qs),
(270,569,o),
(218,501,qs),
(185,459,o),
(173,397,q),
(444,397,l),
(422,331,l),
(166,331,l),
(166,324,o),
(166,316,qs),
(166,294,o),
(167,274,q),
(403,274,l),
(381,208,l),
(177,208,l),
(188,163,o),
(209,129,qs),
(252,60,o),
(331,60,qs),
(403,60,o),
(490,139,o),
(490,204,q),
(575,204,l),
(575,105,o),
(440,-11,o),
(220,-11,o),
(150,77,qs),
(108,131,o),
(92,208,q),
(12,208,l)
);
}
);
width = 612;
}
);
unicode = 8364;
},
{
glyphname = dollar;
layers = (
{
layerId = master01;
shapes = (
{
closed = 1;
nodes = (
(146,189,l),
(146,76,o),
(285,63,q),
(285,298,l),
(253,310,l),
(170,336,o),
(85,408,o),
(85,542,o),
(186,631,o),
(285,638,q),
(285,713,l),
(347,713,l),
(347,637,l),
(434,630,o),
(528,544,o),
(539,476,q),
(461,476,l),
(444,556,o),
(347,568,q),
(347,353,l),
(417,330,ls),
(486,307,o),
(563,230,o),
(563,97,o),
(449,-4,o),
(347,-10,q),
(347,-91,l),
(285,-91,l),
(285,-9,l),
(190,-1,o),
(69,102,o),
(69,189,q)
);
},
{
closed = 1;
nodes = (
(210,395,o),
(255,381,q),
(285,370,l),
(285,569,l),
(228,563,o),
(170,509,o),
(170,436,o)
);
},
{
closed = 1;
nodes = (
(410,67,o),
(475,129,o),
(475,167,qs),
(475,241,o),
(383,270,q),
(347,282,l),
(347,62,l)
);
}
);
width = 632;
}
);
unicode = 36;
},
{
glyphname = rupeesymbol;
layers = (
{
layerId = master01;
shapes = (
{
closed = 1;
nodes = (
(92,296,l),
(153,296,ls),
(240,296,o),
(324,372,o),
(327,429,q),
(92,429,l),
(92,477,l),
(323,477,l),
(312,523,o),
(229,580,o),
(153,580,qs),
(92,580,l),
(92,629,l),
(508,629,l),
(508,580,l),
(325,580,l),
(394,544,o),
(409,477,q),
(508,477,l),
(508,429,l),
(414,429,l),
(407,314,o),
(295,270,qs),
(255,254,o),
(200,250,q),
(474,0,l),
(362,0,l),
(92,248,l)
);
}
);
width = 581;
}
);
unicode = 8377;
},
{
glyphname = sterling;
layers = (
{
layerId = master01;
shapes = (
{
closed = 1;
nodes = (
(20,69,l),
(48,69,ls),
(86,69,o),
(121,113,o),
(121,159,qs),
(121,267,l),
(30,267,l),
(30,323,l),
(121,323,l),
(121,432,ls),
(121,531,o),
(214,640,o),
(305,640,qs),
(376,640,o),
(466,564,o),
(477,490,q),
(400,490,l),
(384,568,o),
(298,568,qs),
(256,568,o),
(199,504,o),
(199,432,qs),
(199,323,l),
(381,323,l),
(381,267,l),
(199,267,l),
(199,163,ls),
(199,95,o),
(162,69,q),
(345,69,ls),
(394,69,o),
(439,110,o),
(445,154,q),
(529,154,l),
(523,77,o),
(439,0,o),
(345,0,qs),
(20,0,l)
);
}
);
width = 565;
}
);
unicode = 163;
},
{
glyphname = yen;
layers = (
{
layerId = master01;
shapes = (
{
closed = 1;
nodes = (
(104,629,l),
(273,340,l),
(446,629,l),
(539,629,l),
(313,258,l),
(313,0,l),
(233,0,l),
(233,258,l),
(10,629,l)
);
},
{
closed = 1;
nodes = (
(57,404,l),
(174,404,l),
(274,332,l),
(358,404,l),
(492,404,l),
(492,329,l),
(57,329,l)
);
},
{
closed = 1;
nodes = (
(74,255,l),
(477,255,l),
(477,180,l),
(74,180,l)
);
}
);
width = 549;
}
);
unicode = 165;
},
{
glyphname = plus;
layers = (
{
layerId = master01;
shapes = (
{
closed = 1;
nodes = (
(18,279,l),
(224,279,l),
(224,491,l),
(303,491,l),
(303,279,l),
(509,279,l),
(509,212,l),
(303,212,l),
(303,0,l),
(224,0,l),
(224,212,l),
(18,212,l)
);
}
);
width = 527;
}
);
unicode = 43;
},
{
glyphname = minus;
layers = (
{
layerId = master01;
shapes = (
{
closed = 1;
nodes = (
(79,325,l),
(409,325,l),
(409,258,l),
(79,258,l)
);
}
);
width = 488;
}
);
unicode = 8722;
},
{
glyphname = multiply;
layers = (
{
layerId = master01;
shapes = (
{
closed = 1;
nodes = (
(204,277,l),
(26,455,l),
(78,507,l),
(256,329,l),
(434,507,l),
(486,455,l),
(308,277,l),
(486,99,l),
(434,47,l),
(256,225,l),
(78,47,l),
(26,99,l)
);
}
);
width = 512;
}
);
unicode = 215;
},
{
glyphname = divide;
layers = (
{
layerId = master01;
shapes = (
{
closed = 1;
nodes = (
(50,279,l),
(541,279,l),
(541,212,l),
(50,212,l)
);
},
{
closed = 1;
nodes = (
(273,136,o),
(324,136,o),
(358,103,o),
(358,56,o),
(324,23,o),
(273,23,o),
(240,56,o),
(240,103,o)
);
},
{
closed = 1;
nodes = (
(273,462,o),
(324,462,o),
(358,429,o),
(358,382,o),
(324,349,o),
(273,349,o),
(240,382,o),
(240,429,o)
);
}
);
width = 591;
}
);
unicode = 247;
},
{
glyphname = equal;
layers = (
{
layerId = master01;
shapes = (
{
closed = 1;
nodes = (
(79,185,l),
(409,185,l),
(409,117,l),
(79,117,l)
);
},
{
closed = 1;
nodes = (
(79,377,l),
(409,377,l),
(409,308,l),
(79,308,l)
);
}
);
width = 488;
}
);
unicode = 61;
},
{
glyphname = greater;
layers = (
{
layerId = master01;
shapes = (
{
closed = 1;
nodes = (
(333,305,l),
(47,512,l),
(98,572,l),
(414,340,l),
(414,271,l),
(98,40,l),
(47,101,l)
);
}
);
width = 454;
}
);
unicode = 62;
},
{
glyphname = less;
layers = (
{
layerId = master01;
shapes = (
{
closed = 1;
nodes = (
(40,340,l),
(356,572,l),
(408,512,l),
(120,305,l),
(408,101,l),
(356,40,l),
(40,271,l)
);
}
);
width = 454;
}
);
unicode = 60;
},
{
glyphname = plusminus;
layers = (
{
layerId = master01;
shapes = (
{
closed = 1;
nodes = (
(18,67,l),
(509,67,l),
(509,0,l),
(18,0,l)
);
},
{
closed = 1;
nodes = (
(18,399,l),
(224,399,l),
(224,611,l),
(303,611,l),
(303,399,l),
(509,399,l),
(509,332,l),
(303,332,l),
(303,120,l),
(224,120,l),
(224,332,l),
(18,332,l)
);
}
);
width = 527;
}
);
unicode = 177;
},
{
glyphname = asciitilde;
layers = (
{
layerId = master01;
shapes = (
{
closed = 1;
nodes = (
(86,357,o),
(160,357,qs),
(194,357,o),
(328,302,o),
(354,302,qs),
(394,302,o),
(419,359,q),
(462,332,l),
(427,226,o),
(349,226,qs),
(326,226,o),
(230,262,o),
(216,268,qs),
(178,282,o),
(158,282,qs),
(121,282,o),
(97,223,q),
(53,246,l)
);
}
);
width = 515;
}
);
unicode = 126;
},
{
glyphname = asciicircum;
layers = (
{
layerId = master01;
shapes = (
{
closed = 1;
nodes = (
(197,586,l),
(258,586,l),
(434,245,l),
(346,245,l),
(227,491,l),
(110,245,l),
(21,245,l)
);
}
);
width = 448;
}
);
unicode = 94;
},
{
glyphname = percent;
layers = (
{
layerId = master01;
shapes = (
{
closed = 1;
nodes = (
(135,640,o),
(241,640,o),
(317,564,o),
(317,428,o),
(242,353,o),
(134,353,o),
(61,429,o),
(61,563,o)
);
},
{
closed = 1;
nodes = (
(534,629,l),
(616,629,l),
(193,0,l),
(112,0,l)
);
},
{
closed = 1;
nodes = (
(159,407,o),
(217,407,o),
(253,449,o),
(253,543,o),
(217,587,o),
(159,587,o),
(123,543,o),
(123,449,o)
);
},
{
closed = 1;
nodes = (
(484,276,o),
(592,276,o),
(667,201,o),
(667,64,o),
(592,-11,o),
(484,-11,o),
(411,65,o),
(411,200,o)
);
},
{
closed = 1;
nodes = (
(509,43,o),
(567,43,o),
(603,85,o),
(603,179,o),
(567,223,o),
(509,223,o),
(473,179,o),
(473,85,o)
);
}
);
width = 726;
}
);
unicode = 37;
},
{
glyphname = uni0308;
layers = (
{
layerId = master01;
shapes = (
{
closed = 1;
nodes = (
(-380,705,o),
(-334,705,o),
(-303,675,o),
(-303,633,o),
(-334,605,o),
(-380,605,o),
(-409,633,o),
(-409,675,o)
);
},
{
closed = 1;
nodes = (
(-211,705,o),
(-166,705,o),
(-135,675,o),
(-135,633,o),
(-166,605,o),
(-211,605,o),
(-241,633,o),
(-241,675,o)
);
}
);
width = 0;
}
);
unicode = 776;
},
{
glyphname = uni0307;
layers = (
{
layerId = master01;
shapes = (
{
closed = 1;
nodes = (
(-294,663,o),
(-243,663,o),
(-209,630,o),
(-209,583,o),
(-243,550,o),
(-294,550,o),
(-327,583,o),
(-327,630,o)
);
}
);
width = 0;
}
);
unicode = 775;
},
{
glyphname = gravecomb;
layers = (
{
layerId = master01;
shapes = (
{
closed = 1;
nodes = (
(-373,731,l),
(-138,598,l),
(-161,548,l),
(-406,661,l)
);
}
);
width = 0;
}
);
unicode = 768;
},
{
glyphname = acutecomb;
layers = (
{
layerId = master01;
shapes = (
{
closed = 1;
nodes = (
(-156,733,l),
(-124,663,l),
(-368,550,l),
(-391,600,l)
);
}
);
width = 0;
}
);
unicode = 769;
},
{
glyphname = uni0302;
layers = (
{
layerId = master01;
shapes = (
{
closed = 1;
nodes = (
(-273,743,l),
(-94,587,l),
(-144,548,l),
(-273,656,l),
(-403,548,l),
(-453,587,l)
);
}
);
width = 0;
}
);
unicode = 770;
},
{
glyphname = uni0306;
layers = (
{
layerId = master01;
shapes = (
{
closed = 1;
nodes = (
(-323,685,l),
(-315,619,o),
(-239,619,qs),
(-199,619,o),
(-160,653,o),
(-157,685,q),
(-89,685,l),
(-99,550,o),
(-241,550,qs),
(-277,550,o),
(-338,569,o),
(-390,633,o),
(-390,685,q)
);
}
);
width = 0;
}
);
unicode = 774;
},
{
glyphname = tildecomb;
layers = (
{
layerId = master01;
shapes = (
{
closed = 1;
nodes = (
(-418,659,o),
(-395,686,qs),
(-373,712,o),
(-348,712,qs),
(-347,712,o),
(-346,712,qs),
(-322,712,o),
(-286,695,qs),
(-240,673,o),
(-213,661,o),
(-187,661,o),
(-159,685,o),
(-149,712,q),
(-114,689,l),
(-125,641,o),
(-174,589,o),
(-215,589,o),
(-249,601,o),
(-309,633,o),
(-330,641,o),
(-341,640,qs),
(-373,637,o),
(-398,589,q),
(-430,608,l)
);
}
);
width = 0;
}
);
unicode = 771;
},
{
glyphname = uni0304;
layers = (
{
layerId = master01;
shapes = (
{
closed = 1;
nodes = (
(-405,624,l),
(-72,624,l),
(-72,550,l),
(-405,550,l)
);
}
);
width = 0;
}
);
unicode = 772;
},
{
glyphname = uni0305;
layers = (
{
layerId = master01;
shapes = (
{
closed = 1;
nodes = (
(-455,624,l),
(-22,624,l),
(-22,550,l),
(-455,550,l)
);
}
);
width = 0;
}
);
unicode = 773;
},
{
glyphname = uni0312;
layers = (
{
layerId = master01;
shapes = (
{
closed = 1;
nodes = (
(-220,697,o),
(-232,652,q),
(-210,650,o),
(-180,624,o),
(-180,580,o),
(-210,550,o),
(-268,550,o),
(-306,595,o),
(-306,663,o),
(-262,734,o),
(-216,756,q),
(-157,727,l)
);
}
);
width = 0;
}
);
unicode = 786;
},
{
glyphname = uni0313;
layers = (
{
layerId = master01;
shapes = (
{
closed = 1;
nodes = (
(-243,619,o),
(-231,664,q),
(-253,666,o),
(-283,692,o),
(-283,736,o),
(-253,766,o),
(-195,766,o),
(-157,721,o),
(-157,653,o),
(-201,582,o),
(-247,560,q),
(-306,589,l)
);
}
);
width = 0;
}
);
unicode = 787;
},
{
glyphname = uni0314;
layers = (
{
layerId = master01;
shapes = (
{
closed = 1;
nodes = (
(-157,589,o),
(-216,560,q),
(-262,582,o),
(-306,653,o),
(-306,721,o),
(-268,766,o),
(-210,766,o),
(-180,736,o),
(-180,692,o),
(-210,666,o),
(-232,664,q),
(-220,619,o),
(-157,589,q)
);
}
);
width = 0;
}
);
unicode = 788;
},
{
glyphname = uni0315;
layers = (
{
layerId = master01;
shapes = (
{
closed = 1;
nodes = (
(-113,619,o),
(-101,664,q),
(-123,666,o),
(-153,692,o),
(-153,736,o),
(-123,766,o),
(-65,766,o),
(-27,721,o),
(-27,653,o),
(-71,582,o),
(-117,560,q),
(-176,589,l)
);
}
);
width = 0;
}
);
unicode = 789;
},
{
glyphname = dotbelowcomb;
layers = (
{
layerId = master01;
shapes = (
{
closed = 1;
nodes = (
(-344,-47,o),
(-293,-47,o),
(-259,-80,o),
(-259,-127,o),
(-293,-160,o),
(-344,-160,o),
(-377,-127,o),
(-377,-80,o)
);
}
);
width = 0;
}
);
unicode = 803;
},
{
glyphname = dieresis;
layers = (
{
layerId = master01;
shapes = (
{
closed = 1;
nodes = (
(53,879,o),
(99,879,o),
(130,850,o),
(130,808,o),
(99,779,o),
(53,779,o),
(24,808,o),
(24,850,o)
);
},
{
closed = 1;
nodes = (
(222,879,o),
(267,879,o),
(298,850,o),
(298,808,o),
(267,779,o),
(222,779,o),
(192,808,o),
(192,850,o)
);
}
);
width = 323;
}
);
unicode = 168;
},
{
glyphname = grave;
layers = (
{
layerId = master01;
shapes = (
{
closed = 1;
nodes = (
(57,860,l),
(292,727,l),
(269,677,l),
(24,790,l)
);
}
);
width = 315;
}
);
unicode = 96;
},
{
glyphname = acute;
layers = (
{
layerId = master01;
shapes = (
{
closed = 1;
nodes = (
(258,860,l),
(290,790,l),
(46,677,l),
(23,727,l)
);
}
);
width = 315;
}
);
unicode = 180;
},
{
glyphname = hungarumlaut;
layers = (
{
layerId = master01;
shapes = (
{
closed = 1;
nodes = (
(153,899,l),
(219,860,l),
(84,627,l),
(36,655,l)
);
},
{
closed = 1;
nodes = (
(320,899,l),
(386,860,l),
(251,627,l),
(203,655,l)
);
}
);
width = 422;
}
);
unicode = 733;
},
{
glyphname = circumflex;
layers = (
{
layerId = master01;
shapes = (
{
closed = 1;
nodes = (
(204,872,l),
(383,716,l),
(333,677,l),
(204,785,l),
(74,677,l),
(24,716,l)
);
}
);
width = 407;
}
);
unicode = 710;
},
{
glyphname = caron;
layers = (
{
layerId = master01;
shapes = (
{
closed = 1;
nodes = (
(74,876,l),
(204,768,l),
(333,876,l),
(383,837,l),
(204,681,l),
(24,837,l)
);
}
);
width = 407;
}
);
unicode = 711;
},
{
glyphname = breve;
layers = (
{
layerId = master01;
shapes = (
{
closed = 1;
nodes = (
(82,732,l),
(90,666,o),
(166,666,qs),
(206,666,o),
(245,700,o),
(248,732,q),
(316,732,l),
(305,597,o),
(164,597,qs),
(128,597,o),
(68,616,o),
(16,680,o),
(15,732,q)
);
}
);
width = 333;
}
);
unicode = 728;
},
{
glyphname = ring;
layers = (
{
layerId = master01;
shapes = (
{
closed = 1;
nodes = (
(51,738,o),
(120,806,o),
(169,806,qs),
(217,806,o),
(287,738,o),
(287,640,o),
(218,571,o),
(120,571,o),
(51,640,o),
(51,689,qs)
);
},
{
closed = 1;
nodes = (
(103,662,o),
(140,622,o),
(169,622,qs),
(197,622,o),
(235,661,o),
(235,716,o),
(196,754,o),
(169,754,qs),
(141,754,o),
(103,716,o),
(103,689,qs)
);
}
);
width = 434;
}
);
unicode = 730;
},
{
glyphname = tilde;
layers = (
{
layerId = master01;
shapes = (
{
closed = 1;
nodes = (
(35,789,o),
(81,842,o),
(107,842,qs),
(132,842,o),
(166,825,qs),
(212,802,o),
(240,790,o),
(266,790,o),
(294,815,o),
(304,842,q),
(339,819,l),
(328,771,o),
(279,719,o),
(238,719,o),
(204,731,o),
(144,762,o),
(123,770,o),
(112,770,qs),
(80,770,o),
(55,719,q),
(23,738,l)
);
}
);
width = 366;
}
);
unicode = 732;
},
{
glyphname = macron;
layers = (
{
layerId = master01;
shapes = (
{
closed = 1;
nodes = (
(21,874,l),
(354,874,l),
(354,800,l),
(21,800,l)
);
}
);
width = 373;
}
);
unicode = 175;
},
{
glyphname = cedilla;
layers = (
{
layerId = master01;
shapes = (
{
closed = 1;
nodes = (
(237,-138,o),
(252,-138,qs),
(312,-138,o),
(312,-105,qs),
(312,-74,o),
(261,-74,qs),
(259,-74,o),
(258,-74,qs),
(240,-74,o),
(235,-74,q),
(261,0,l),
(305,0,l),
(289,-41,l),
(327,-42,o),
(366,-75,o),
(366,-104,qs),
(366,-178,o),
(254,-178,qs),
(231,-178,o),
(217,-176,q),
(217,-136,l)
);
}
);
width = 682;
}
);
unicode = 184;
},
{
glyphname = ogonek;
layers = (
{
layerId = master01;
shapes = (
{
closed = 1;
nodes = (
(216,-56,o),
(262,-13,qs),
(275,0,o),
(291,10,q),
(334,3,l),
(279,-32,o),
(279,-79,qs),
(279,-82,o),
(279,-82,qs),
(278,-98,o),
(290,-110,qs),
(303,-123,o),
(321,-123,qs),
(342,-123,o),
(369,-105,q),
(386,-152,l),
(356,-179,o),
(310,-179,qs),
(216,-178,o),
(216,-96,qs)
);
}
);
width = 614;
}
);
unicode = 731;
},
{
glyphname = apostrophe;
layers = (
{
layerId = master01;
shapes = (
{
closed = 1;
nodes = (
(98,534,o),
(111,579,q),
(88,581,o),
(58,607,o),
(58,651,o),
(89,681,o),
(146,681,o),
(184,636,o),
(184,568,o),
(140,497,o),
(95,475,q),
(36,504,l)
);
}
);
width = 184;
}
);
unicode = 700;
},
